<svg id="Layer_1" enable-background="new 0 0 50 50" height="512" viewBox="0 0 50 50" width="512" xmlns="http://www.w3.org/2000/svg"><g><g><g><g enable-background="new"><path d="m15.6432 6.1768-3.9099 2.2774c-.9775-.2555-1.8328-.1557-2.5215.2441l3.91-2.2769c.6886-.3997 1.555-.5 2.5214-.2446z" fill="#b0afb0"/><path d="m29.5169 9.6426-3.921 2.2769c-1.333-3.1545-3.6545-6.0757-6.3093-7.6085-2.0994-1.2111-3.9989-1.3223-5.3651-.5337l3.91-2.2655c1.3774-.8 3.2768-.6888 5.3651.5218 2.6547 1.5333 4.9874 4.4545 6.3203 7.609z" fill="#e8e8e8"/><path d="m36.4704 17.9627-3.9099 2.2769c-1.0326-4.3842-4.4861-7.7562-6.9647-8.3201l3.921-2.2769c.4887.1112.9997.333 1.544.6443 2.5327 1.4661 4.6877 4.6097 5.4096 7.6758z" fill="#d7d7d7"/><path d="m40.7853 31.6385-3.9144 2.2748c1.0263-.5964 1.6628-1.8643 1.6679-3.6661.0118-4.1784-3.3755-8.9217-5.9813-10.0079l3.9144-2.2748c.0993.0414.1915.0946.2837.1479 3.1559 1.8221 5.7078 6.2421 5.6976 9.86-.0051 1.8018-.6416 3.0697-1.6679 3.6661z" fill="#bfbfbf"/><g><path d="m19.2834 4.3071c2.6524 1.5314 4.9812 4.4595 6.3148 7.6129 2.508.5705 5.9278 3.9393 6.9593 8.3193 2.6173 1.091 5.9932 5.8154 5.9813 10.0079-.0103 3.6268-2.5788 5.0905-5.7348 3.2684l-19.5668-11.2969c-3.1559-1.8221-5.7007-6.238-5.6904-9.8648.0085-3.0069 1.7745-4.5257 4.1809-3.9038.0842-4.661 3.4424-6.5179 7.5557-4.143z" fill="#d7d7d7"/></g></g></g><g><g enable-background="new"><g><path d="m9.8297 30.434 1.1524-.6698 2.6986 1.5581-1.1524.6697z" fill="#ef5a5a"/></g><g><path d="m17.7064 34.9816 1.1524-.6697 2.6882 1.552-1.1525.6697z" fill="#ef5a5a"/></g><g><path d="m20.3945 36.5336 1.1525-.6697-5.3022 3.9016-1.1524.6697z" fill="#bc2b3b"/></g><g><path d="m17.7256 28.1919 1.1524-.6697-.0192 6.7897-1.1524.6697z" fill="#bc2b3b"/></g><g><path d="m12.5476 25.2023 1.1524-.6697 5.178 2.9896-1.1524.6697z" fill="#ef5a5a"/></g><g><path d="m17.7256 28.1919-.0192 6.7897 2.6881 1.552-5.3021 3.9016-5.2627-10.0012 2.6986 1.558.0193-6.7897z" fill="#dd454d"/></g></g><g enable-background="new"><g><path d="m29.9463 42.2103 1.1524-.6697-.0192 6.7897-1.1524.6697z" fill="#14a0db"/></g><g><path d="m27.377 33.7641 1.1524-.6697 5.2628 10.0012-1.1525.6698z" fill="#69c4ef"/></g><g><path d="m27.377 33.7641 5.2627 10.0013-2.6934-1.5551-.0192 6.7897-5.1833-2.9926.0193-6.7897-2.6882-1.552z" fill="#55b8e8"/></g></g></g></g><path d="m37.5502 33.3442c.77-.8999.96-2.1602.91-3.2998-.05-1.3203-.43-2.6001-.94-3.8101-1.8964-4.4124-5.04-5.7643-5.14-5.8501-.0463-.1016-.8747-4.2602-4.43-6.9902-1.5172-1.1427-2.3977-1.2076-2.53-1.2598-.2558-.4373-2.3233-5.6446-6.67-7.8599-3.889-1.9963-6.7009-.1518-6.9 4.1802l-.01.1499-.14-.04c-.53-.1401-1.1-.2002-1.64-.1001-.54.1099-1.04.3799-1.43.7798-.77.79-1.04 1.9302-1.08 3.0303 0-1.0903.22-2.2603.99-3.1201.39-.4199.91-.73 1.48-.8599.53-.1201 1.08-.1001 1.6.0098.0497-4.1673 3.0356-6.5667 7.33-4.4199 1.61.8203 2.96 2.04 4.1 3.3999 1.11 1.3403 2.04 2.8301 2.73 4.4302 2.5087.6744 5.8442 3.8826 6.95 8.3799 2.1931 1.1779 4.0818 3.6695 5.03 6.04.51 1.2402.83 2.5703.84 3.9102.02 1.1698-.24 2.4496-1.05 3.2997z" fill="#fff"/></g></svg>