<svg id="Layer_1" enable-background="new 0 0 50 50" height="512" viewBox="0 0 50 50" width="512" xmlns="http://www.w3.org/2000/svg"><g><g><g enable-background="new"><g fill="#7bb1ff"><path d="m10.09426 8.66147-6.94602 4.03672c1.34209-.78011 3.20187-.66889 5.25414.51597.39852.23009 1.14461.66088 1.18389.68351l6.94602-4.03654c-.03928-.02264-.78537-.45342-1.18389-.68351-2.05225-1.18486-3.91205-1.29608-5.25414-.51615z"/><path d="m29.18217 42.44949 6.94602-4.03654c.47121-.27376.89892-.62273 1.27648-1.043l-6.94602 4.03654c-.37756.42027-.80527.76924-1.27648 1.043z"/><path d="m41.64564 24.36028c-.39852-.23009-1.14241-.65963-1.18157-.68208.02154-7.59453-5.31881-16.84179-11.92807-20.65768-3.32498-1.91971-6.33802-2.09812-8.51371-.83376l-6.94602 4.03672c2.17569-1.26454 5.18873-1.08595 8.51371.83376 6.60926 3.81571 11.94962 13.06297 11.92807 20.6575.03917.02264.78305.45199 1.18157.68226 4.0737 2.35192 7.36758 8.04635 7.35432 12.72736-.00659 2.32269-.82625 3.95545-2.1482 4.72379l6.94602-4.03672c1.32195-.76817 2.14161-2.40093 2.1482-4.72361.01326-4.68102-3.28062-10.37563-7.35432-12.72754z"/></g><g><path d="m21.58997 7.05713c6.60926 3.81586 11.94961 13.06306 11.92808 20.65759.03915.0226.78305.45209 1.18156.68218 4.07369 2.35195 7.36759 8.04646 7.35432 12.72743s-3.32864 6.55962-7.40233 4.20768c-1.55211-.89611-3.00476-2.29274-4.19296-3.92552-1.95298 2.17424-5.24742 2.43686-8.96688.28942-3.71713-2.14609-6.99932-6.20572-8.93593-10.62562-1.19356.25768-2.64703-.02355-4.20147-.921-4.0737-2.35195-7.3676-8.04647-7.35433-12.72744s3.32864-6.55962 7.40234-4.20767c.39851.23008 1.14462.66084 1.18389.68352.02153-7.59453 5.39678-10.65508 12.00371-6.84057z" fill="#5793fb"/></g></g></g><g><g><g enable-background="new"><path d="m30.78074 30.80387-8.71904-5.03384c-.33138-.19139-.6336-.57636-.78692-.99366l-1.02807-2.75725c-.15906-.42735-.46127-.80533-.79266-.99672l-6.3993-3.69454c-.24863-.14376-.47826-.16255-.64507-.06554l-1.26146.73279c.16681-.09657.39644-.07778.64507.06554l6.3993 3.69498c.33138.19095.63365.56937.79265.99672l1.02807 2.75725c.15332.4173.45559.80227.78697.99322l8.71904 5.03428c.4971.28709.90146.98055.89982 1.55822l-.04119 14.52297c-.00082.28621-.1011.4859-.26251.57985l1.26146-.73323c.16141-.09394.26169-.29364.26245-.57985l.04118-14.52253c.00166-.57811-.40269-1.27157-.89979-1.55866z" fill="#ffdd94"/><g><path d="m18.19259 21.75541c.33139.19133.63363.56955.79268.99675l1.02805 2.75742c.15333.41712.45557.80212.78696.99345l8.71903 5.03394c.4971.287.90145.9807.89982 1.55845l-.04118 14.52288c-.00164.57775-.4086.80304-.9057.51604l-18.50083-10.68146c-.49708-.28699-.90145-.9807-.89982-1.55845l.04359-15.37633c.00035-.12467.02355-.22973.05816-.3282l.76667-1.9378c.13257-.33768.47044-.41234.85325-.19132z" fill="#febb61"/></g></g></g><path d="m28.33288 31.78047-15.68368-9.05512c-.61452-.3548-1.3829.08753-1.38469.79712l-.03084 14.05049 17.98986 10.3863.03214-14.5758c.00167-.66103-.35032-1.27247-.92279-1.60299z" fill="#fff"/><g><g enable-background="new"><path d="m30.28831 47.77076-4.25872-11.40916c-.12333-.33471-.50808-.76425-.85662-.96569l-19.03217-10.98836c-.19161-.11055-.33253-.13109-.40201-.07341l-.61732.50994c.06942-.05724.21034-.03671.40195.07385l19.03218 10.98835c.34854.201.73328.63098.85662.96569l4.25871 11.40872c.05921.15512.05189.25999-.00705.30893l.61738-.51038c.05894-.04849.06626-.15336.00705-.30848z" fill="#ffdd94"/><g><path d="m24.55561 35.90613c.34852.20122.73329.63112.8566.96585l4.25872 11.4089c.12896.33772-.05763.43774-.40617.23651l-19.03792-10.99155c-.34852-.20122-.73329-.63112-.85654-.96553l-4.25872-11.4089c-.12331-.33473.05757-.43806.41182-.23352z" fill="#febb61"/></g></g></g></g></g></svg>