<svg id="Layer_1" enable-background="new 0 0 132 132" height="512" viewBox="0 0 132 132" width="512" xmlns="http://www.w3.org/2000/svg"><g><g><g fill="#d4dae8"><path d="m129.9995 90.7515-30.68-17.83-.05-18.52c0-.39-.14-.65-.36-.78l-1.18-.68c-.21-.13-.52-.11-.85.09l-19.47 11.24-.33-.19c-.61-.35-.99-1.01-.99-1.72l-.03-8.4c5.66-4.56 9.86-12.71 9.84-19.57-.01-3.94-1.43-6.71-3.7-7.97l-13.3-7.65c-1.17-.68-2.56-.95-4.12-.78l-6.01-3.45c-2.25-1.31-5.36-1.14-8.78.84-1.58.9-3.11 2.14-4.45 3.57l-2-1.15c-3.45-2.0099-8.28-1.73-13.58 1.32-10.35 5.99-18.76 20.46-18.99 32.48-5.1 3.96-9.02 11.38-9 17.55.01 3.37 1.22 5.75 3.16 6.87l13.4 7.71c-.09-.0601-.17-.1201-.26-.1801 2 1.33 4.86 1.25 8.01-.5699l17.93-10.35.02 6.96c.01 1.06.58 2.05 1.49 2.58l9.15 5.28-5.72 3.3.03 3.95 40.29 23.42 40.56-23.42zm-75.21-66.14c-.55-.15-1.14-.2599-1.73-.3199.6.0599 1.17.1599 1.73.3199zm1.08 62.26-9.65-5.57c-.61-.35-.99-1.0099-.99-1.71l-.02-7.54 14.43-8.33.02 7.26c0 1.06.58 2.05 1.49 2.58l4.51 2.6.02 5.05zm10.98-16.51c-.67.39-1.2 1.31-1.2 2.08l.01 2.56-4.01-2.31c-.61-.35-.99-1.01-.99-1.71l-.02-7.83 12.99-7.51c.4901-.28.97-.59 1.44-.93l.02 7.66c0 .99.52 1.91 1.34 2.46z"/><path d="m120.1994 108.8415 5.5801 3.22-.0201 3.02-5.5399 3.22-5.57-3.22.01-3.02z"/><path d="m27.8131 93.9886-.0144 3.0171 5.5732 3.2177 5.5413-3.2203.0144-3.0172-5.5732-3.2176z"/><path d="m125.6831 72.8064v-.9491l-10.5485-6.0902-10.4882 6.0951v.9492l10.5485 6.0901z"/></g><g><g><g><g><g><path d="m60.8562 90.9118-15.1323-8.7417c-.9175-.5303-1.4893-1.5176-1.4922-2.5771l-.0567-19.5869 1-.0029.0566 19.5869c.002.7046.3823 1.3613.9922 1.7139l15.1323 8.7417z" fill="#416e84"/></g></g><g><g><path d="m76.2849 82.299-15.1323-8.7417c-.9175-.5303-1.4893-1.5176-1.4922-2.5767l-.0571-19.5874 1-.0029.0571 19.5874c.002.7046.3823 1.3608.9922 1.7134l15.1323 8.7417z" fill="#416e84"/></g></g><g><g><path d="m91.7136 73.6867-15.1323-8.7417c-.9175-.5298-1.4893-1.5176-1.4927-2.5772l-.0566-19.5868 1-.0029.0566 19.5869c.0024.7046.3828 1.3618.9927 1.7139l15.1323 8.7417z" fill="#416e84"/></g></g></g><g><g><g><path d="m68.8992 18.7684 13.4026 7.7044c-1.8518-1.0762-4.2922-1.1329-7.019.018l-13.4027-7.7043c2.7268-1.151 5.1673-1.0943 7.0191-.0181z" fill="#d4dae8"/></g></g><g><g><path d="m58.7719 14.542 13.4026 7.7044c-2.2478-1.3063-5.3629-1.1396-8.7869.8372-1.6532.9545-3.2685 2.2676-4.6625 3.7913l-13.4027-7.7044c1.3941-1.5238 3.0094-2.8369 4.6626-3.7914 3.424-1.9767 6.539-2.1434 8.7869-.8371z" fill="#cad0dd"/></g></g><g><g><path d="m18.5277 83.7283-13.4027-7.7044c-1.9373-1.1259-3.1457-3.5006-3.1553-6.8767-.0175-6.1633 3.8987-13.5827 9.0024-17.5441l13.4026 7.7044c-5.1036 3.9614-9.0198 11.3807-9.0023 17.5441.0095 3.3761 1.218 5.7508 3.1553 6.8767z" fill="#cad0dd"/></g></g><g><g><path d="m56.9462 25.5119c-3.5098-2.0138-8.2858-1.7261-13.5793 1.3237-10.3575 5.984-18.7596 20.4508-18.99 32.4764l-13.4049-7.7089c.23-12.026 8.6325-26.4928 18.9896-32.4768 5.2939-3.0498 10.1271-3.3374 13.5793-1.3237z" fill="#d4dae8"/></g></g><g><path d="m85.9018 34.3958c.0251 7.8086-5.4317 17.2996-12.2696 21.2499l-47.3541 27.3345c-5.9507 3.4398-10.8886.7114-10.9054-6.1264-.0168-6.1683 3.9001-13.5835 9.0055-17.5423.2176-12.0603 8.6456-26.4725 18.9986-32.4566 6.2854-3.624 11.8427-3.3645 15.3495.0168 1.3894-1.5232 3.0046-2.8372 4.6618-3.7914 5.6243-3.239 10.4116-1.6069 11.893 3.4064 5.9924-2.5276 10.604.7783 10.6207 7.9091z" fill="#e4e8f4"/></g><g><path d="m84.2241 34.3978c.0167 3.9838-1.5232 8.3945-3.9671 12.2193v.067c-.3013.4854-.6277.9625-.9625 1.4228s-.6863.9039-1.0378 1.3391c-1.6237 1.9584-3.4901 3.6072-5.4652 4.7538l-6.2101 3.5821-4.0424 2.335-13.433 7.7585c-.0084 0-.0084 0-.0084 0l-23.6603 13.6589c-1.4228.8202-2.8205 1.2554-4.0341 1.2554-2.7201 0-4.3437-2.2179-4.3604-5.9423 0-1.9166.4268-4.0089 1.1884-6.0678.1423-.3933.3013-.7867.4687-1.1801.1004-.226.2009-.4604.3097-.6863.1925-.4101.3934-.8119.611-1.2136.1004-.1925.2092-.385.318-.5775.1758-.3097.3599-.6193.5524-.929.159-.2511.318-.4938.4854-.7365.2595-.385.5273-.7616.8202-1.1299v-.0083c.1758-.226.3515-.452.5273-.6696.2343-.2762.4687-.5524.7198-.8118.1423-.1674.293-.3264.4436-.4771.0669-.0753.1339-.1423.2009-.2092.3515-.3431.703-.6695 1.0629-.9792.2176-.1842.4352-.3683.6528-.5357l.0502-.0418.5859-.452.0084-.4436v-.3599c0-.226.0084-.4436.0251-.6695.0084-.3766.0335-.7533.0753-1.1383.0084-.1255.0167-.2594.0251-.3933.0251-.2009.0502-.4017.0753-.6026.0168-.1506.0335-.3013.0586-.4436.0251-.1674.0418-.3348.0753-.4938.1256-.8286.2846-1.6739.4938-2.5108.159-.6946.3431-1.3977.5607-2.1007.0418-.1673.0921-.3264.1506-.4938.0502-.1842.1172-.3766.1842-.5607.6444-1.9668 1.4563-3.9169 2.4271-5.8084 3.3394-6.6369 8.4113-12.5793 14.0188-15.8182 2.7117-1.5651 5.3815-2.3936 7.7166-2.3936 2.243 0 4.1345.7281 5.6326 2.1676l.2511.2427.9876.9457 1.155-1.2638c.8872-.9709 1.8664-1.8413 2.8791-2.5694l.0921-.0586c.4268-.318.8453-.5942 1.2889-.8453.4519-.2594.9039-.4854 1.3558-.6779.2846-.1255.5691-.2343.8453-.318.0084 0 .0084-.0084.0168-.0084.862-.2929 1.6906-.4436 2.4606-.4436 2.3435 0 4.0341 1.3726 4.779 3.875l.1842.6277.3431 1.1717.9708-.4101.7533-.318c1.1215-.4687 2.1844-.7114 3.1553-.7114 3.2136.0002 5.1302 2.6449 5.1386 7.0807z" fill="#fff"/></g><g><g><g><g><g><g><path d="m80.257 45.8974v.7867c-.3013.4854-.6277.9625-.9625 1.4228s-.6863.9039-1.0378 1.3391c-1.6237 1.9584-3.4901 3.6072-5.4652 4.7538l-6.2101 3.5821c-.2846.0335-.5942-.0251-.8035-.1423l-3.4147-1.9835s-.0083-.0084-.0167-.0084h-.0084v-.0083l-1.0797-.6194v-.0083l-.7031-.4018-1.5735-.9122v-.0084h-.0084l-.8286-.4771-3.0046-1.7492-.3599-.2092h-.0083l-.8286-.4771-1.0294-.6026c-.0168-.0084-.0335-.0251-.0502-.0418-.1339-.0921-.1925-.1925-.1925-.3097-.0084-.0084-.0084-.0168-.0084-.0251l-.0084-1.7659v-.4185l-.0084-1.699c0 .0335.0084.0586.0168.0921.0168.0586.0586.1255.1172.1757.0335.0335.0753.067.1255.0921l1.0295.5942.3683.2176 3.0046 1.7409.8286.4854 1.0378.611c0-.0084.0084 0 .0084 0l.7365.4268 1.5818.9206.8286.4771v.0084h.0084l.2511.1506 3.1637 1.8329.0083.0084c.3013.1757.7951.2009 1.1467.0669.0502-.0167.1004-.0335.1423-.0585l12.9308-7.4739c.1839-.1089.2676-.2428.276-.385z" fill="#474b59"/></g></g></g><g><g><g><path d="m52.9059 46.27 12.8495 7.4694c.355.2048.9422.2048 1.2973.0136l12.9315-7.4693c.3686-.2184.355-.5598.0136-.7647l-12.8632-7.4694c-.355-.2048-.9149-.2048-1.2836.0137l-12.9451 7.4694c-.3413.2047-.355.5325 0 .7373z" fill="#5b5e71"/></g></g></g><g><g><g><path d="m60.6714 46.33 5.7471 3.3505 5.8121-3.3614-5.7579-3.3398z" fill="#363a44"/></g></g><g><g><g><path d="m59.9232 45.8962.7482.4338 5.8013-3.3507v-.8674z" fill="#474b59"/></g></g><g><g><path d="m66.4727 42.1119v.8674l5.7579 3.3398.7482-.4338z" fill="#3f434f"/></g></g></g></g><g><g><path d="m67.7637 45.3919c.7373.4257.7412 1.1087.0086 1.5344-.7239.4207-1.9031.4207-2.6405-.005-.7287-.4207-.7325-1.1038-.0086-1.5245.7326-.4256 1.9118-.4256 2.6405-.0049z" fill="#748bfd"/></g></g><g><g><g><path d="m75.0844 50.3073c.3439-.1985.6327-.0431.6338.3612.0011.3951-.2858.8921-.6297 1.0907s-.6327.034-.6338-.3612c-.0011-.4043.2859-.8921.6297-1.0907z" fill="#f9bb4a"/></g></g></g><g><g><g><path d="m76.9637 49.2224c.3439-.1985.6327-.0431.6338.3612.0011.3951-.2858.8921-.6297 1.0907s-.6327.034-.6338-.3612c-.0012-.4044.2858-.8922.6297-1.0907z" fill="#75ca75"/></g></g></g><g><g><g><path d="m79.2945 48.1069c-.3348.4603-.6863.9039-1.0378 1.3391-.0251-.0586-.0419-.1339-.0419-.2176 0-.4017.2762-.8872.6277-1.088.1758-.1005.3348-.1172.452-.0335z" fill="#e4e8f4"/></g></g></g><g><g><g><path d="m54.5455 48.7474c-.3079-.1778-.5665-.0386-.5676.3234-.001.3538.2559.7989.5639.9767.3151.1819.5665.0304.5676-.3234.001-.3621-.2488-.7948-.5639-.9767z" fill="#5b5e71"/></g></g></g><g><g><g><path d="m64.063 54.3419-.0017 1.0471-8.2424-4.7587.0018-1.0472z" fill="#5b5e71"/></g></g></g></g><g><g><g><g><path d="m52.6433 41.2727.0195 3.8868c0 .1375.0786.2553.2553.3731l12.8635 7.4627c.3338.1963.923.216 1.2765.0197l12.942-7.4824c.1767-.0983.2748-.2357.2748-.3731l-.0195-3.9065c0 .1375-.0786.275-.275.3928l-12.9223 7.4627c-.3535.1963-.9426.1963-1.2961 0l-12.8634-7.4824c-.1768-.098-.2553-.2355-.2553-.3534z" fill="#474b59"/></g></g></g><g><g><g><path d="m52.9059 41.6295 12.8495 7.4694c.355.2048.9422.2048 1.2973.0136l12.9315-7.4693c.3686-.2184.355-.5598.0136-.7647l-12.8632-7.4695c-.355-.2048-.9149-.2048-1.2836.0137l-12.9451 7.4694c-.3413.2048-.355.5326 0 .7374z" fill="#5b5e71"/></g></g></g><g><g><g><path d="m60.6714 41.6894 5.7471 3.3506 5.8121-3.3614-5.7579-3.3398z" fill="#363a44"/></g></g><g><g><g><path d="m59.9232 41.2556.7482.4338 5.8013-3.3506v-.8675z" fill="#474b59"/></g></g><g><g><path d="m66.4727 37.4713v.8675l5.7579 3.3398.7482-.4338z" fill="#3f434f"/></g></g></g></g><g><g><path d="m67.7637 40.7513c.7373.4257.7412 1.1087.0086 1.5344-.7239.4207-1.9031.4207-2.6405-.005-.7287-.4207-.7325-1.1038-.0086-1.5245.7326-.4256 1.9118-.4256 2.6405-.0049z" fill="#748bfd"/></g></g><g><g><g><path d="m75.0844 45.6668c.3439-.1985.6327-.0431.6338.3612.0011.3951-.2858.8921-.6297 1.0907s-.6327.034-.6338-.3612c-.0011-.4044.2859-.8922.6297-1.0907z" fill="#f9bb4a"/></g></g></g><g><g><g><path d="m76.9637 44.5818c.3439-.1985.6327-.0431.6338.3612.0011.3951-.2858.8921-.6297 1.0907s-.6327.034-.6338-.3612c-.0012-.4043.2858-.8921.6297-1.0907z" fill="#75ca75"/></g></g></g><g><g><g><path d="m78.8429 43.4968c.3439-.1985.6327-.0431.6338.3612.0011.3951-.2858.8921-.6297 1.0907-.3519.2031-.6327.034-.6338-.3612-.0011-.4043.2778-.8875.6297-1.0907z" fill="#e4e8f4"/></g></g></g><g><g><g><path d="m54.5455 44.1068c-.3079-.1778-.5665-.0386-.5676.3234-.001.3538.2559.7989.5639.9767.3151.1819.5665.0304.5676-.3234.001-.362-.2488-.7947-.5639-.9767z" fill="#5b5e71"/></g></g></g><g><g><g><path d="m64.063 49.7013-.0017 1.0472-8.2424-4.7588.0018-1.0471z" fill="#5b5e71"/></g></g></g></g><g><g><g><g><path d="m52.6433 36.4065.0195 3.8868c0 .1375.0786.2553.2553.3731l12.8635 7.4627c.3338.1963.923.216 1.2765.0197l12.942-7.4824c.1767-.0983.2748-.2357.2748-.3731l-.0195-3.9065c0 .1375-.0786.275-.275.3928l-12.9223 7.4627c-.3535.1963-.9426.1963-1.2961 0l-12.8634-7.4823c-.1768-.0982-.2553-.2356-.2553-.3535z" fill="#474b59"/></g></g></g><g><g><g><path d="m52.9059 36.7632 12.8495 7.4694c.355.2048.9422.2048 1.2973.0136l12.9315-7.4693c.3686-.2184.355-.5598.0136-.7647l-12.8632-7.4694c-.355-.2048-.9149-.2048-1.2836.0137l-12.9451 7.4694c-.3413.2048-.355.5326 0 .7373z" fill="#5b5e71"/></g></g></g><g><g><g><path d="m60.6714 36.8232 5.7471 3.3506 5.8121-3.3615-5.7579-3.3398z" fill="#363a44"/></g></g><g><g><g><path d="m59.9232 36.3894.7482.4338 5.8013-3.3507v-.8674z" fill="#474b59"/></g></g><g><g><path d="m66.4727 32.6051v.8674l5.7579 3.3398.7482-.4337z" fill="#3f434f"/></g></g></g></g><g><g><path d="m67.7637 35.8851c.7373.4257.7412 1.1087.0086 1.5344-.7239.4207-1.9031.4207-2.6405-.005-.7287-.4207-.7325-1.1038-.0086-1.5245.7326-.4256 1.9118-.4256 2.6405-.0049z" fill="#748bfd"/></g></g><g><g><g><path d="m75.0844 40.8006c.3439-.1985.6327-.0431.6338.3612.0011.3951-.2858.8921-.6297 1.0907s-.6327.034-.6338-.3612c-.0011-.4044.2859-.8922.6297-1.0907z" fill="#f9bb4a"/></g></g></g><g><g><g><path d="m76.9637 39.7156c.3439-.1985.6327-.0431.6338.3612.0011.3951-.2858.8921-.6297 1.0907s-.6327.034-.6338-.3612c-.0012-.4044.2858-.8922.6297-1.0907z" fill="#75ca75"/></g></g></g><g><g><g><path d="m78.8429 38.6306c.3439-.1985.6327-.0431.6338.3612.0011.3951-.2858.8921-.6297 1.0907-.3519.2031-.6327.034-.6338-.3612-.0011-.4043.2778-.8875.6297-1.0907z" fill="#e4e8f4"/></g></g></g><g><g><g><path d="m54.5455 39.2406c-.3079-.1778-.5665-.0386-.5676.3234-.001.3538.2559.7989.5639.9767.3151.1819.5665.0304.5676-.3234.001-.3621-.2488-.7948-.5639-.9767z" fill="#5b5e71"/></g></g></g><g><g><g><path d="m64.063 44.8351-.0017 1.0472-8.2424-4.7588.0018-1.0471z" fill="#5b5e71"/></g></g></g></g><g><g><g><g><path d="m52.6433 31.5403.0195 3.8868c0 .1375.0786.2553.2553.3731l12.8635 7.4627c.3338.1963.923.216 1.2765.0197l12.942-7.4824c.1767-.0983.2748-.2357.2748-.3731l-.0195-3.9065c0 .1375-.0786.275-.275.3928l-12.9223 7.4627c-.3535.1963-.9426.1963-1.2961 0l-12.8634-7.4824c-.1768-.0981-.2553-.2356-.2553-.3534z" fill="#474b59"/></g></g></g><g><g><g><path d="m80.257 31.5187c0 .1423-.0921.2845-.2762.3933l-3.5319 2.0421-3.8415 2.2179-.3599.2092-.3766.2176h-.0084l-3.4566 1.9919-.1506.1005h-.0168l-.5775.3347-.611.3515c-.3515.1925-.9374.1925-1.2972-.0083l-.5273-.3097h-.0084l-.544-.318-.2009-.1172-3.4482-2.0003-.3515-.2092h-.0084l-.067-.0418-.318-.1925-3.8081-2.2095-3.5654-2.0756c-.0418-.0251-.0837-.0502-.1172-.0837-.0585-.0502-.1004-.1088-.1255-.1758-.0084-.0251-.0168-.0585-.0168-.0921-.0084-.1423.0837-.2762.2594-.385l4.9128-2.8372 5.0216-2.8875.0921-.0586 2.6447-1.5232c.2846-.1255.5691-.2343.8453-.318.0084 0 .0084-.0084.0168-.0084.2511-.0083.5021.0419.6946.1507l6.729 3.9085.3431 1.1717.9708-.4101 4.8208 2.7954c.1678.1005.2599.2428.2599.3767z" fill="#5b5e71"/></g></g></g><g><g><g><path d="m60.6714 31.957 5.7471 3.3506 5.8121-3.3615-5.7579-3.3398z" fill="#363a44"/></g></g><g><g><g><path d="m59.9232 31.5232.7482.4338 5.8013-3.3507v-.8674z" fill="#474b59"/></g></g><g><g><path d="m66.4727 27.7389v.8674l5.7579 3.3398.7482-.4337z" fill="#3f434f"/></g></g></g></g><g><g><path d="m67.7637 31.0189c.7373.4257.7412 1.1087.0086 1.5344-.7239.4207-1.9031.4207-2.6405-.005-.7287-.4207-.7325-1.1038-.0086-1.5245.7326-.4256 1.9118-.4256 2.6405-.0049z" fill="#748bfd"/></g></g><g><g><g><path d="m75.0844 35.9343c.3439-.1985.6327-.0431.6338.3612.0011.3951-.2858.8921-.6297 1.0907s-.6327.034-.6338-.3612c-.0011-.4043.2859-.8921.6297-1.0907z" fill="#f9bb4a"/></g></g></g><g><g><g><path d="m76.9637 34.8494c.3439-.1985.6327-.0431.6338.3612.0011.3951-.2858.8921-.6297 1.0907s-.6327.034-.6338-.3612c-.0012-.4044.2858-.8922.6297-1.0907z" fill="#75ca75"/></g></g></g><g><g><g><path d="m78.8429 33.7644c.3439-.1985.6327-.0431.6338.3612.0011.3951-.2858.8921-.6297 1.0907-.3519.2031-.6327.034-.6338-.3612-.0011-.4043.2778-.8876.6297-1.0907z" fill="#e4e8f4"/></g></g></g><g><g><g><path d="m54.5455 34.3744c-.3079-.1778-.5665-.0386-.5676.3234-.001.3538.2559.7989.5639.9767.3151.1819.5665.0304.5676-.3234.001-.3621-.2488-.7948-.5639-.9767z" fill="#5b5e71"/></g></g></g><g><g><g><path d="m64.063 39.9689-.0017 1.0471-8.2424-4.7587.0018-1.0472z" fill="#5b5e71"/></g></g></g></g></g><g><g><g><g><g><path d="m34.9799 56.0318.0195 3.8868c0 .1375.0786.2553.2553.3731l12.8635 7.4627c.3338.1963.923.216 1.2764.0197l12.942-7.4824c.1767-.0983.2749-.2357.2749-.3731l-.0195-3.9065c0 .1375-.0786.275-.275.3928l-12.9223 7.4627c-.3535.1963-.9426.1963-1.2961 0l-12.8634-7.4824c-.1768-.098-.2553-.2355-.2553-.3534z" fill="#37617b"/></g></g></g><g><g><g><path d="m35.2425 56.3886 12.8495 7.4694c.355.2048.9422.2048 1.2973.0136l12.9315-7.4693c.3686-.2184.355-.5598.0136-.7647l-12.8631-7.4694c-.355-.2048-.9149-.2048-1.2836.0137l-12.9451 7.4694c-.3415.2047-.3551.5325-.0001.7373z" fill="#4c7891"/></g></g></g><g><g><g><path d="m43.008 56.4485 5.7471 3.3506 5.812-3.3614-5.7578-3.3398z" fill="#363a44"/></g></g><g><g><g><path d="m42.2598 56.0147.7482.4338 5.8013-3.3506v-.8675z" fill="#37617b"/></g></g><g><g><path d="m48.8093 52.2304v.8675l5.7578 3.3398.7482-.4338z" fill="#3f434f"/></g></g></g></g><g><g><path d="m50.1002 55.5104c.7373.4257.7412 1.1087.0086 1.5344-.7239.4207-1.9031.4207-2.6405-.005-.7287-.4207-.7325-1.1038-.0086-1.5245.7326-.4256 1.9119-.4256 2.6405-.0049z" fill="#748bfd"/></g></g><g><g><g><path d="m57.421 60.4259c.3439-.1985.6327-.0431.6338.3612.0011.3951-.2858.8921-.6297 1.0907-.3439.1985-.6327.034-.6338-.3612-.0011-.4044.2858-.8922.6297-1.0907z" fill="#f9bb4a"/></g></g></g><g><g><g><path d="m59.3002 59.3409c.3439-.1985.6327-.0431.6338.3612.0011.3951-.2858.8921-.6297 1.0907-.3439.1985-.6327.034-.6338-.3612-.0011-.4043.2859-.8921.6297-1.0907z" fill="#75ca75"/></g></g></g><g><g><g><path d="m61.1795 58.2559c.3439-.1985.6327-.0431.6338.3612.0011.3951-.2858.8921-.6297 1.0907-.3519.2031-.6327.034-.6338-.3612-.0012-.4043.2778-.8875.6297-1.0907z" fill="#e4e8f4"/></g></g></g><g><g><g><path d="m36.8821 58.8659c-.3079-.1778-.5665-.0386-.5676.3234-.001.3538.2559.7989.5639.9767.3151.1819.5665.0304.5676-.3234.001-.362-.2488-.7947-.5639-.9767z" fill="#4c7891"/></g></g></g><g><g><g><path d="m46.3996 64.4604-.0018 1.0472-8.2423-4.7587.0017-1.0472z" fill="#4c7891"/></g></g></g></g><g><g><g><g><path d="m34.9799 51.3913.0195 3.8868c0 .1375.0786.2553.2553.3731l12.8635 7.4627c.3338.1963.923.216 1.2764.0197l12.942-7.4824c.1767-.0983.2749-.2357.2749-.3731l-.0195-3.9065c0 .1375-.0786.275-.275.3928l-12.9223 7.4627c-.3535.1963-.9426.1963-1.2961 0l-12.8634-7.4824c-.1768-.0981-.2553-.2356-.2553-.3534z" fill="#37617b"/></g></g></g><g><g><g><path d="m35.2425 51.748 12.8495 7.4694c.355.2048.9422.2048 1.2973.0136l12.9315-7.4693c.3686-.2184.355-.5598.0136-.7647l-12.8631-7.4694c-.355-.2048-.9149-.2048-1.2836.0137l-12.9451 7.4694c-.3415.2047-.3551.5325-.0001.7373z" fill="#4c7891"/></g></g></g><g><g><g><path d="m43.008 51.808 5.7471 3.3505 5.812-3.3614-5.7578-3.3398z" fill="#363a44"/></g></g><g><g><g><path d="m42.2598 51.3742.7482.4338 5.8013-3.3507v-.8674z" fill="#37617b"/></g></g><g><g><path d="m48.8093 47.5899v.8674l5.7578 3.3398.7482-.4338z" fill="#3f434f"/></g></g></g></g><g><g><path d="m50.1002 50.8699c.7373.4257.7412 1.1087.0086 1.5344-.7239.4207-1.9031.4207-2.6405-.005-.7287-.4207-.7325-1.1038-.0086-1.5245.7326-.4256 1.9119-.4256 2.6405-.0049z" fill="#748bfd"/></g></g><g><g><g><path d="m57.421 55.7853c.3439-.1985.6327-.0431.6338.3612.0011.3951-.2858.8921-.6297 1.0907-.3439.1985-.6327.034-.6338-.3612-.0011-.4043.2858-.8921.6297-1.0907z" fill="#f9bb4a"/></g></g></g><g><g><g><path d="m59.3002 54.7004c.3439-.1985.6327-.0431.6338.3612.0011.3951-.2858.8921-.6297 1.0907-.3439.1985-.6327.034-.6338-.3612-.0011-.4044.2859-.8922.6297-1.0907z" fill="#75ca75"/></g></g></g><g><g><g><path d="m61.1795 53.6154c.3439-.1985.6327-.0431.6338.3612.0011.3951-.2858.8921-.6297 1.0907-.3519.2031-.6327.034-.6338-.3612-.0012-.4044.2778-.8876.6297-1.0907z" fill="#e4e8f4"/></g></g></g><g><g><g><path d="m36.8821 54.2254c-.3079-.1778-.5665-.0386-.5676.3234-.001.3538.2559.7989.5639.9767.3151.1819.5665.0304.5676-.3234.001-.3621-.2488-.7948-.5639-.9767z" fill="#4c7891"/></g></g></g><g><g><g><path d="m46.3996 59.8199-.0018 1.0471-8.2423-4.7587.0017-1.0472z" fill="#4c7891"/></g></g></g></g><g><g><g><g><path d="m34.9799 46.5251.0195 3.8868c0 .1375.0786.2553.2553.3731l12.8635 7.4627c.3338.1963.923.216 1.2764.0197l12.942-7.4824c.1767-.0983.2749-.2357.2749-.3731l-.0195-3.9065c0 .1375-.0786.275-.275.3928l-12.9223 7.4627c-.3535.1963-.9426.1963-1.2961 0l-12.8634-7.4824c-.1768-.0981-.2553-.2356-.2553-.3534z" fill="#37617b"/></g></g></g><g><g><g><path d="m35.2425 46.8818 12.8495 7.4694c.355.2048.9422.2048 1.2973.0136l12.9315-7.4693c.3686-.2184.355-.5598.0136-.7647l-12.8631-7.4694c-.355-.2048-.9149-.2048-1.2836.0137l-12.9451 7.4694c-.3415.2047-.3551.5325-.0001.7373z" fill="#4c7891"/></g></g></g><g><g><g><path d="m43.008 46.9417 5.7471 3.3506 5.812-3.3614-5.7578-3.3398z" fill="#363a44"/></g></g><g><g><g><path d="m42.2598 46.508.7482.4337 5.8013-3.3506v-.8675z" fill="#37617b"/></g></g><g><g><path d="m48.8093 42.7236v.8675l5.7578 3.3398.7482-.4338z" fill="#3f434f"/></g></g></g></g><g><g><path d="m50.1002 46.0037c.7373.4257.7412 1.1087.0086 1.5344-.7239.4207-1.9031.4207-2.6405-.005-.7287-.4207-.7325-1.1038-.0086-1.5245.7326-.4257 1.9119-.4256 2.6405-.0049z" fill="#748bfd"/></g></g><g><g><g><path d="m57.421 50.9191c.3439-.1985.6327-.0431.6338.3612.0011.3951-.2858.8921-.6297 1.0907-.3439.1985-.6327.034-.6338-.3612-.0011-.4043.2858-.8921.6297-1.0907z" fill="#f9bb4a"/></g></g></g><g><g><g><path d="m59.3002 49.8341c.3439-.1985.6327-.0431.6338.3612.0011.3951-.2858.8921-.6297 1.0907-.3439.1985-.6327.034-.6338-.3612-.0011-.4043.2859-.8921.6297-1.0907z" fill="#75ca75"/></g></g></g><g><g><g><path d="m61.1795 48.7492c.3439-.1985.6327-.0431.6338.3612.0011.3951-.2858.8921-.6297 1.0907-.3519.2031-.6327.034-.6338-.3612-.0012-.4044.2778-.8876.6297-1.0907z" fill="#e4e8f4"/></g></g></g><g><g><g><path d="m36.8821 49.3592c-.3079-.1778-.5665-.0386-.5676.3234-.001.3538.2559.7989.5639.9767.3151.1819.5665.0304.5676-.3234.001-.3621-.2488-.7948-.5639-.9767z" fill="#4c7891"/></g></g></g><g><g><g><path d="m46.3996 54.9536-.0018 1.0472-8.2423-4.7587.0017-1.0472z" fill="#4c7891"/></g></g></g></g><g><g><g><g><path d="m34.9799 41.6589.0195 3.8868c0 .1375.0786.2553.2553.3731l12.8635 7.4627c.3338.1963.923.216 1.2764.0197l12.942-7.4824c.1767-.0983.2749-.2357.2749-.3731l-.0195-3.9065c0 .1375-.0786.275-.275.3928l-12.9223 7.4627c-.3535.1963-.9426.1963-1.2961 0l-12.8634-7.4824c-.1768-.0981-.2553-.2356-.2553-.3534z" fill="#37617b"/></g></g></g><g><g><g><path d="m35.2425 42.0156 12.8495 7.4694c.355.2048.9422.2048 1.2973.0136l12.9315-7.4693c.3686-.2184.355-.5598.0136-.7647l-12.8631-7.4694c-.355-.2048-.9149-.2048-1.2836.0137l-12.9451 7.4694c-.3415.2047-.3551.5325-.0001.7373z" fill="#4c7891"/></g></g></g><g><g><g><path d="m43.008 42.0755 5.7471 3.3506 5.812-3.3614-5.7578-3.3398z" fill="#363a44"/></g></g><g><g><g><path d="m42.2598 41.6418.7482.4337 5.8013-3.3506v-.8675z" fill="#37617b"/></g></g><g><g><path d="m48.8093 37.8574v.8675l5.7578 3.3398.7482-.4338z" fill="#37617b"/></g></g></g></g><g><g><path d="m50.1002 41.1374c.7373.4257.7412 1.1087.0086 1.5344-.7239.4207-1.9031.4207-2.6405-.005-.7287-.4207-.7325-1.1038-.0086-1.5245.7326-.4256 1.9119-.4256 2.6405-.0049z" fill="#748bfd"/></g></g><g><g><g><path d="m57.421 46.0529c.3439-.1985.6327-.0431.6338.3612.0011.3951-.2858.8921-.6297 1.0907-.3439.1985-.6327.034-.6338-.3612-.0011-.4044.2858-.8922.6297-1.0907z" fill="#f9bb4a"/></g></g></g><g><g><g><path d="m59.3002 44.9679c.3439-.1985.6327-.0431.6338.3612.0011.3951-.2858.8921-.6297 1.0907-.3439.1985-.6327.034-.6338-.3612-.0011-.4043.2859-.8921.6297-1.0907z" fill="#75ca75"/></g></g></g><g><g><g><path d="m61.1795 43.883c.3439-.1985.6327-.0431.6338.3612.0011.3951-.2858.8921-.6297 1.0907-.3519.2031-.6327.034-.6338-.3612-.0012-.4044.2778-.8876.6297-1.0907z" fill="#e4e8f4"/></g></g></g><g><g><g><path d="m36.8821 44.493c-.3079-.1778-.5665-.0386-.5676.3234-.001.3538.2559.7989.5639.9767.3151.1819.5665.0304.5676-.3234.001-.3621-.2488-.7948-.5639-.9767z" fill="#4c7891"/></g></g></g><g><g><g><path d="m46.3996 50.0874-.0018 1.0472-8.2423-4.7587.0017-1.0472z" fill="#4c7891"/></g></g></g></g></g><g><g><g><g><g><path d="m44.9464 70.0347c0 .1423-.1004.2762-.2762.3766l-12.9391 7.4823c-.3515.1925-.9457.1758-1.2722-.0168l-12.2277-7.0972c.1423-.3933.3013-.7867.4687-1.1801.1004-.226.2009-.4604.3097-.6863.1925-.4101.3934-.8119.611-1.2136l10.8049 6.2771.0084.0084c.0418.0251.0921.0418.1506.067.226.0837.5189.1088.77.0585.0753-.0167.1506-.0335.226-.0585.0502-.0168.1004-.0335.1423-.0586l12.9307-7.4739c.0502-.0335.0921-.0586.1256-.0921.1088-.0921.1506-.1925.1506-.2929z" fill="#474b59"/></g></g></g><g><g><g><path d="m44.9297 66.1346c0 .1004-.0418.2009-.1506.2929-.0335.0335-.0753.0586-.1256.0921l-12.9307 7.4739c-.0418.0251-.0921.0418-.1423.0586-.0753.0251-.1506.0418-.226.0585-.2594.0419-.544.0168-.77-.0585-.0586-.0251-.1088-.0419-.1506-.067l-.0084-.0084-10.8049-6.2771c.1004-.1925.2092-.385.318-.5775.1758-.3097.3599-.6193.5524-.929.159-.2511.318-.4938.4854-.7365.2595-.385.5273-.7616.8202-1.1299v-.0083c.1758-.226.3515-.452.5273-.6696.2343-.2762.4687-.5524.7198-.8118.1423-.1674.293-.3264.4436-.4771l.2762-.159 1.0295-.5942.3515-.2009.8537-.4938 1.0713-.6193.9039-.519 1.021-.5858.3516-.2092 1.1801-.6779c.1758-.1004.4017-.159.6193-.1674.2427 0 .4771.0502.6612.1506l1.1047.6445h.0084l.3599.2176h.0084l1.9417 1.1299 1.0546.611h.0084l.544.3264.159.0921.1172.067h.0084l.3515.2092h.0084l2.9963 1.7409h.0084l.8286.4854 1.5818.9207.703.4101 1.0713.6193h.0084v.0084c.167.1003.2507.2258.2507.3681z" fill="#5b5e71"/></g></g></g><g><g><g><path d="m25.3446 66.5671 5.747 3.3505 5.8121-3.3614-5.7579-3.3398z" fill="#363a44"/></g></g><g><g><g><path d="m24.5964 66.1333.7482.4338 5.8012-3.3507v-.8675z" fill="#474b59"/></g></g><g><g><path d="m31.1458 62.3489v.8675l5.7579 3.3398.7482-.4338z" fill="#3f434f"/></g></g></g></g><g><g><path d="m32.4368 65.629c.7373.4257.7412 1.1087.0086 1.5344-.7239.4207-1.9031.4207-2.6405-.005-.7287-.4207-.7325-1.1038-.0086-1.5245.7326-.4256 1.9118-.4256 2.6405-.0049z" fill="#748bfd"/></g></g><g><g><g><path d="m39.7576 70.5444c.3439-.1985.6327-.0431.6338.3612.0011.3951-.2858.8921-.6297 1.0907-.3439.1985-.6327.034-.6338-.3612-.0011-.4043.2858-.8921.6297-1.0907z" fill="#f9bb4a"/></g></g></g><g><g><g><path d="m41.6368 69.4595c.3439-.1985.6327-.0431.6338.3612.0011.3951-.2858.8921-.6297 1.0907-.3439.1985-.6327.034-.6338-.3612-.0011-.4044.2858-.8922.6297-1.0907z" fill="#75ca75"/></g></g></g><g><g><g><path d="m43.516 68.3745c.3439-.1985.6327-.0431.6338.3612.0011.3951-.2858.8921-.6297 1.0907-.3519.2031-.6327.034-.6338-.3612-.0011-.4044.2779-.8876.6297-1.0907z" fill="#e4e8f4"/></g></g></g><g><g><g><path d="m19.7796 69.9594c0 .3515-.2511.5105-.5608.3264-.2259-.1256-.4268-.4101-.5189-.6863.1004-.226.2009-.4604.3097-.6863.067 0 .1339.0251.2092.0753.3181.1758.5608.611.5608.9709z" fill="#5b5e71"/></g></g></g><g><g><g><path d="m28.7362 74.579-.0018 1.0471-8.2424-4.7587.0018-1.0472z" fill="#5b5e71"/></g></g></g></g><g><g><g><g><path d="m44.9464 64.6699v.7281c0 .1339-.1004.2678-.2678.3599v.0084h-.0084l-12.9391 7.4823c-.3515.2009-.9457.1841-1.2722-.0168l-10.5204-6.1097c.1758-.3097.3599-.6193.5524-.929.159-.2511.318-.4938.4854-.7365.2595-.385.5273-.7616.8202-1.1299l2.9544 1.7158h.0084l.7449.4352 4.9212 2.8624.0084.0083c.1339.0753.2929.1172.4771.1339.1674.0168.3515.0084.5189-.0251.1088-.0251.2092-.0586.2929-.1088l5.0133-2.8958.7365-.4268h.0084l3.8332-2.2179 1.0713-.6193.9123-.5189 1.3558-.7867c.0084 0 .0168-.0084.0168-.0084v-.0084c.0418-.0167.0753-.0502.1088-.0753.0335-.0335.0669-.0586.0837-.0921.0251-.0335.0418-.067.0502-.1004.0084-.0335.0168-.067.0168-.1004v.5272l.0084 1.5902z" fill="#474b59"/></g></g></g><g><g><g><path d="m44.9297 61.498c0 .0335-.0084.0669-.0168.1004s-.0251.0669-.0502.1004c-.0168.0335-.0502.0586-.0837.0921-.0335.0251-.067.0586-.1088.0753v.0084s-.0084.0084-.0168.0084l-1.3558.7867-.9123.5189-1.0713.6193-3.8332 2.2179h-.0084l-.7365.4268-5.0133 2.8958c-.0837.0502-.1841.0837-.2929.1088-.1674.0335-.3515.0419-.5189.0251-.1758-.0168-.3432-.067-.4771-.1339l-.0084-.0083-4.9212-2.8624-.7449-.4352h-.0082l-2.9544-1.7241c.1758-.226.3515-.452.5273-.6696.2343-.2762.4687-.5524.7198-.8118.1423-.1674.293-.3264.4436-.4771.0669-.0753.1339-.1423.2009-.2092.3515-.3431.703-.6695 1.0629-.9792.2176-.1842.4352-.3683.6528-.5357l.0502-.0418.5859-.452.0084-.4436v-.3599c0-.226.0084-.4436.0251-.6695.0084-.3766.0335-.7533.0753-1.1383.0084-.1255.0167-.2594.0251-.3933.0251-.2009.0502-.4017.0753-.6026.0168-.1506.0335-.3013.0586-.4436l2.8791-1.6571 1.3391-.7784c.1758-.1004.3934-.159.6193-.1673.2427 0 .4771.0502.6612.159l1.2805.7448 2.1593 1.2554h.0084l1.6655.9625v.0084l.3683.2092 3.0046 1.7409.8286.4854h.0083l1.7743 1.0378.4938.2846 1.088.6277h.0084l.1758.1088c.1757.1005.2594.2427.2594.3851z" fill="#5b5e71"/></g></g></g><g><g><g><path d="m25.3446 61.9265 5.747 3.3506 5.8121-3.3614-5.7579-3.3398z" fill="#363a44"/></g></g><g><g><g><path d="m24.5964 61.4927.7482.4338 5.8012-3.3506v-.8675z" fill="#474b59"/></g></g><g><g><path d="m31.1458 57.7084v.8675l5.7579 3.3398.7482-.4338z" fill="#3f434f"/></g></g></g></g><g><g><path d="m32.4368 60.9884c.7373.4257.7412 1.1087.0086 1.5344-.7239.4207-1.9031.4207-2.6405-.005-.7287-.4207-.7325-1.1038-.0086-1.5245.7326-.4256 1.9118-.4256 2.6405-.0049z" fill="#748bfd"/></g></g><g><g><g><path d="m39.7576 65.9039c.3439-.1985.6327-.0431.6338.3612.0011.3951-.2858.8921-.6297 1.0907-.3439.1985-.6327.034-.6338-.3612-.0011-.4044.2858-.8922.6297-1.0907z" fill="#f9bb4a"/></g></g></g><g><g><g><path d="m41.6368 64.8189c.3439-.1985.6327-.0431.6338.3612.0011.3951-.2858.8921-.6297 1.0907-.3439.1985-.6327.034-.6338-.3612-.0011-.4043.2858-.8922.6297-1.0907z" fill="#75ca75"/></g></g></g><g><g><g><path d="m43.516 63.7339c.3439-.1985.6327-.0431.6338.3612.0011.3951-.2858.8921-.6297 1.0907-.3519.2031-.6327.034-.6338-.3612-.0011-.4043.2779-.8875.6297-1.0907z" fill="#e4e8f4"/></g></g></g><g><g><g><path d="m28.7349 69.9343v1.0546l-8.2439-4.7622v-.0335c.159-.2511.318-.4938.4854-.7365z" fill="#5b5e71"/></g></g></g></g><g><g><g><g><path d="m44.9464 60.0333v.4938c0 .1423-.1004.2762-.2762.3766l-.1758.1004h-.0084l-.6444.385h-.0084l-1.3726.7951-.9123.5189-1.0629.6194h-.0084l-3.8332 2.2179-.7365.4352-4.1763 2.4104c-.3515.1925-.9457.1757-1.2722-.0168l-4.1094-2.3853-.7449-.4268-3.2808-1.9083c.2343-.2762.4687-.5524.7198-.8118.1423-.1674.293-.3264.4436-.4771.0669-.0753.1339-.1423.2009-.2092.3515-.3431.703-.6695 1.0629-.9792l.2009.1172.1925.1171.5524.318 3.2557 1.8915h.0084l.7365.4352h.0084l.7198.4185s.0084 0 .0084.0084c.067.0335.1423.0669.226.092.0753.0251.159.0418.2511.0502.2845.0335.5942-.0168.8118-.1339l.8035-.4687h.0084l.7365-.4268h.0083l3.2557-1.8831.5775-.3348h.0084l.1674-.1004.8872-.5189.9039-.5189h.0083l1.381-.8035h.0084l.6445-.3766h.0083l.0419-.0251 1.021-.5859.9123-.5273 1.2052-.7031h.0083l.1507-.0921h.0083l.1758-.1004c.0502-.0335.0921-.067.1256-.0921.0335-.0335.0585-.067.0837-.1004.0251-.0335.0418-.067.0502-.1004.0084-.0335.0168-.067.0168-.1004v.9457l.0084 1.3977z" fill="#474b59"/></g></g></g><g><g><g><path d="m44.9297 56.6269c0 .0335-.0084.0669-.0168.1004s-.0251.0669-.0502.1004-.0502.067-.0837.1004c-.0335.0251-.0753.0586-.1256.0837l-.1758.1004v.0084h-.0083l-.1507.0921h-.0083l-1.2136.6947-.9123.5273-1.0127.5942-.0419.0251h-.0083l-.6445.3766h-.0084l-1.381.8035h-.0083l-.9039.5189-.8872.5189-.1674.1004h-.0084l-.5775.3348-3.2557 1.8831h-.0083l-.7365.4268h-.0084l-.8035.4687c-.2176.1172-.5273.1674-.8118.1339-.0921-.0084-.1758-.0251-.2511-.0502-.0837-.0251-.159-.0586-.226-.092 0-.0084-.0084-.0084-.0084-.0084l-.7198-.4185h-.0084l-.7365-.4352h-.0084l-3.2557-1.8915-.5524-.318-.1925-.1171-.2009-.1172c.2176-.1842.4352-.3683.6528-.5357l.0502-.0418.5859-.452.0084-.4436v-.3599c0-.226.0084-.4436.0251-.6695.0084-.3766.0335-.7533.0753-1.1383.0084-.1255.0167-.2594.0251-.3933.0251-.2009.0502-.4017.0753-.6026.0168-.1506.0335-.3013.0586-.4436.0251-.1674.0418-.3348.0753-.4938.1256-.8286.2846-1.6739.4938-2.5108.159-.6946.3431-1.3977.5607-2.1007.0418-.1673.0921-.3264.1506-.4938l2.9377-1.699c.1758-.1004.4017-.159.6193-.1674.2427 0 .4771.0502.6612.1506l3.4231 1.9919.2176.1255 1.8413 1.0629 2.1676 1.2638 1.6656.9708 1.7826 1.0295v.0083l.3599.2092.1339.0753.611.3515h.0084l.4687.2762h.0084l.1758.1088c.1762.1007.2599.2346.2599.3769z" fill="#5b5e71"/></g></g></g><g><g><g><path d="m36.9034 57.0454-.2678.1506-1.6404.9541-1.54.8955-.1674.1004h-.0084l-.5775.3348-1.6069.929-1.5567-.9039-.544-.318-.2009-.1172h-.0084l-2.6363-1.54c.0084-.1255.0167-.2594.0251-.3933.0251-.2009.0502-.4017.0753-.6026l3.2892-1.8998 1.6069-.929 1.5651.9039 2.2849 1.3308 1.5399.8955h.0084z" fill="#363a44"/></g></g><g><g><g><path d="m31.1452 52.844v.862l-1.6069.929-3.2892 1.8998c.0168-.1506.0335-.3013.0586-.4436.0251-.1674.0418-.3348.0753-.4938l2.4104-1.3977 1.9417-1.1215z" fill="#474b59"/></g></g><g><g><path d="m31.1458 52.8422v.8674l5.7579 3.3398.7482-.4337z" fill="#3f434f"/></g></g></g></g><g><g><path d="m32.4368 56.1222c.7373.4257.7412 1.1087.0086 1.5344-.7239.4207-1.9031.4207-2.6405-.005-.7287-.4207-.7325-1.1038-.0086-1.5245.7326-.4256 1.9118-.4256 2.6405-.0049z" fill="#748bfd"/></g></g><g><g><g><path d="m39.7576 61.0377c.3439-.1985.6327-.0431.6338.3612.0011.3951-.2858.8921-.6297 1.0907-.3439.1985-.6327.034-.6338-.3612-.0011-.4044.2858-.8922.6297-1.0907z" fill="#f9bb4a"/></g></g></g><g><g><g><path d="m41.6368 59.9527c.3439-.1985.6327-.0431.6338.3612.0011.3951-.2858.8921-.6297 1.0907-.3439.1985-.6327.034-.6338-.3612-.0011-.4044.2858-.8922.6297-1.0907z" fill="#75ca75"/></g></g></g><g><g><g><path d="m43.516 58.8677c.3439-.1985.6327-.0431.6338.3612.0011.3951-.2858.8921-.6297 1.0907-.3519.2031-.6327.034-.6338-.3612-.0011-.4043.2779-.8875.6297-1.0907z" fill="#e4e8f4"/></g></g></g><g><g><g><path d="m28.7349 65.0717v1.0462l-1.3056-.7532-.7448-.4352h-.0085l-3.6323-2.0924c.1423-.1674.293-.3264.4436-.4771.0669-.0753.1339-.1423.2009-.2092l.0753.0502 3.8248 2.2095.7449.4268z" fill="#5b5e71"/></g></g></g></g><g><g><g><g><path d="m44.9464 55.1623v.5021c0 .1339-.1004.2762-.2762.3766l-.1758.1004h-.0084l-.8369.4938h-.0084l-.159.0921-1.2135.703-.9123.5273-1.0629.611-.6444.3766h-.0084l-1.3894.8035-.0921.0586-1.699.9792-.1674.1004h-.0084l-.5775.3348-3.2557 1.8831-.7198.4185c-.0084.0084-.0168.0084-.0251.0167h-.0084c-.318.159-.8035.159-1.1299.0084-.0418-.0084-.0753-.0335-.1088-.0502l-.6444-.3766-3.2641-1.8914-.5524-.318-.2009-.1172-.3431-.2009.5859-.452.0084-.4436v-.3599c0-.226.0084-.4436.0251-.6695.0084-.3766.0335-.7533.0753-1.1383.0084-.1255.0167-.2594.0251-.3933l2.9711 1.7241.2009.1172.544.318h.0084l.5273.3097c.3599.2009.9457.2009 1.2972.0084l.611-.3516.5774-.3347h.0084l.1674-.0921 1.8999-1.1047 1.2889-.7449.2594-.1506h.0084l.3766-.2176.3599-.2092.8788-.5105.7281-.4185 1.3894-.8035.8453-.4854 1.0713-.6193.9039-.5273h.0084l1.0127-.5859.3599-.2092.1758-.1004c.0502-.0251.0921-.0586.1256-.0921.1088-.092.1506-.1925.1506-.2929v.7532l.0084.4185v1.5316z" fill="#474b59"/></g></g></g><g><g><g><path d="m44.9297 51.7643c0 .1004-.0418.2009-.1506.2929-.0335.0335-.0753.067-.1256.0921l-.1758.1004-.3599.2092-1.0127.5859h-.0084l-.9039.5273-1.0713.6193-.8453.4854-1.3894.8035-.7281.4185-.8787.5105-.3599.2009v.0084l-.3766.2176h-.0084l-.2594.1506-1.2889.7449-1.9082 1.0964-.159.1004h-.0084l-.5774.3347-.611.3516c-.3515.1925-.9374.1925-1.2972-.0084l-.5273-.3097h-.0084l-.544-.318-.2009-.1172-2.9711-1.7241c.0251-.2009.0502-.4017.0753-.6026.0168-.1506.0335-.3013.0586-.4436.0251-.1674.0418-.3348.0753-.4938.1256-.8286.2846-1.6739.4938-2.5108.159-.6946.3431-1.3977.5607-2.1007.0418-.1673.0921-.3264.1506-.4938.0502-.1842.1172-.3766.1842-.5607.6444-1.9668 1.4563-3.9169 2.4271-5.8084l.3264-.1925c.3683-.2176.929-.2176 1.2805-.0167l3.4147 1.9835.226.1339h.0084l4.1931 2.4355 3.8081 2.2095h.0084l.1925.1172.5524.318.4604.2678s.0084 0 .0084.0084c.1672.1005.2509.2344.2509.3767z" fill="#5b5e71"/></g></g></g><g><g><g><path d="m36.9034 52.1828-.4519.2678h-.0084l-1.4563.8369-1.5316.8955-.3683.2092-.3766.2176-1.6153.9374-1.5567-.9122-.3515-.2009-.3934-.2344-1.9166-1.1131c.159-.6946.3431-1.3977.5607-2.1007l3.7076-2.1426 3.9504 2.2933z" fill="#363a44"/></g></g><g><g><g><path d="m31.1452 47.973v.8704l-3.7076 2.1426c.0418-.1673.0921-.3264.1506-.4938.0502-.1842.1172-.3766.1842-.5607z" fill="#474b59"/></g></g><g><g><path d="m31.1458 47.976v.8674l5.7579 3.3398.7482-.4337z" fill="#3f434f"/></g></g></g></g><g><g><path d="m32.4368 51.256c.7373.4257.7412 1.1087.0086 1.5344-.7239.4207-1.9031.4207-2.6405-.005-.7287-.4207-.7325-1.1038-.0086-1.5245.7326-.4256 1.9118-.4256 2.6405-.0049z" fill="#748bfd"/></g></g><g><g><g><path d="m39.7576 56.1714c.3439-.1985.6327-.0431.6338.3612.0011.3951-.2858.8921-.6297 1.0907-.3439.1985-.6327.034-.6338-.3612-.0011-.4043.2858-.8921.6297-1.0907z" fill="#f9bb4a"/></g></g></g><g><g><g><path d="m41.6368 55.0865c.3439-.1985.6327-.0431.6338.3612.0011.3951-.2858.8921-.6297 1.0907-.3439.1985-.6327.034-.6338-.3612-.0011-.4044.2858-.8922.6297-1.0907z" fill="#75ca75"/></g></g></g><g><g><g><path d="m43.516 54.0015c.3439-.1985.6327-.0431.6338.3612.0011.3951-.2858.8921-.6297 1.0907-.3519.2031-.6327.034-.6338-.3612-.0011-.4043.2779-.8876.6297-1.0907z" fill="#e4e8f4"/></g></g></g><g><g><g><path d="m28.7349 60.209v1.0462l-1.1131-.6445-.5524-.318-.2009-.1172-.8202-.4771v-.3599c0-.226.0084-.4436.0251-.6695l1.699.9876.2009.1171.5524.318z" fill="#5b5e71"/></g></g></g></g></g></g></g><g><path d="m49.1494 90.7505.028 3.9512 40.2948 23.4168-.028-3.9512z" fill="#f9bb4a"/></g><g><path d="m89.4442 114.1673.028 3.9512 40.5584-23.4165-.028-3.9512z" fill="#efac41"/></g><g><path d="m129.9995 90.7515-40.5601 23.42-40.2899-23.42 40.5599-23.42z" fill="#fed57a"/></g><g><g><g><g><path d="m66.8991 95.1213 19.0115 11.0483c.659.383 1.7307.383 2.394 0l30.0289-17.3372c.6665-.3848.67-1.0055.0109-1.3885l-19.0115-11.0483z" fill="#cad0dd"/></g></g></g><g><g><path d="m110.6663 84.638-29.5943 17.0923-11.599-6.7294 29.4867-17.017z" fill="#afb5bf"/></g></g><g><g><g><path d="m98.9179 53.6315c-.2167-.128-.5219-.1132-.8568.0837l-31.1632 41.4-.8302-.4828c-.2189-.1273-.3539-.3611-.3546-.6143l-.0628-21.5812c0-.7632.5318-1.6889 1.1965-2.073l30.0308-17.337c.3348-.192.6401-.2117.8568-.0837z" fill="#cad0dd"/></g></g></g><g><g><g><path d="m98.0626 53.7132c.6633-.383 1.2027-.0756 1.2048.6866l.0623 21.9886-32.4338 18.7257-.0623-21.9886c-.0022-.7622.5337-1.6903 1.197-2.0733z" fill="#5b5e71"/></g></g></g><g><g><g><path d="m68.311 73.1215c-.001-.2356.252-.671.4583-.79l29.0245-16.7573.0567 19.9629-29.4847 17.0227z" fill="#fff"/></g></g></g><g><g><g><path d="m66.8991 95.1225.0063 1.5855c.0022.259.1446.4964.3721.6203l18.6425 10.5178c.6598.384 1.7283.384 2.393 0l30.0308-17.337c.3348-.192.5022-.4481.5022-.6992l-.0099-1.6695c0 .2511-.1674.5023-.5022.6943l-30.0258 17.2884c-.6647.3792-1.7381.3792-2.393 0z" fill="#5b5e71"/></g></g></g><g><g><g><path d="m104.1047 95.3841-.1636.104-5.1902 3.004c-.2825.1636-.6395.1636-.922 0l-3.242-1.8738-.1784-.1041c-.3122-.1636-.3122-.6246 0-.7881l5.3389-3.1082c.2974-.1785.6543-.1785.9518-.0149l3.3906 1.9779c.3273.1785.3273.6246.0149.8032z" fill="#bac1ce"/></g></g></g><g><g><g><path d="m92.449 85.1217c-.0639.0369-.0642.0976-.0007.1345l1.1831.6875c.0635.0369.1646.0347.2284-.0022l1.1908-.6875c.0638-.0369.0642-.0933.0007-.1301l-1.1831-.6875c-.0635-.0369-.1646-.039-.2284-.0022z" fill="#5b5e71"/></g></g></g><g><g><g><path d="m91.428 88.2275c-.0638.0369-.0604.0954.003.1323l1.1831.6875c.0597.0347.1608.0369.2246 0l1.1908-.6875c.0639-.0369.0642-.0976.0045-.1323l-1.183-.6875c-.0635-.0369-.1683-.0369-.2321 0z" fill="#5b5e71"/></g></g></g><g><g><g><path d="m93.6256 86.9588c-.0639.0369-.0642.0976-.0008.1345l1.1831.6875c.0597.0347.1646.0347.2284-.0022l2.1863-1.2623c.0638-.0369.0604-.0954.0007-.1301l-1.1831-.6875c-.0635-.0369-.1645-.039-.2284-.0022z" fill="#5b5e71"/></g></g></g><g><g><g><path d="m81.767 96.3216c-.0639.0369-.0604.0954-.0007.1301l1.1831.6875c.0634.0369.1646.039.2284.0022l1.1908-.6875c.0638-.0369.0604-.0954-.003-.1323l-1.1831-.6875c-.0597-.0347-.1608-.0369-.2247 0z" fill="#5b5e71"/></g></g></g><g><g><g><path d="m75.414 97.4733c-.0601.0347-.0605.0954.003.1323l1.183.6875c.0597.0347.1646.0347.2247 0l1.713-.989c.0601-.0347.0605-.0954.0007-.1301l-1.1831-.6875c-.0635-.0369-.1683-.0369-.2284-.0022z" fill="#5b5e71"/></g></g></g><g><g><g><path d="m78.4868 95.6992c-.0639.0369-.0605.0954.003.1323l1.1831.6875c.0597.0347.1608.0369.2247 0l1.1908-.6875c.0639-.0369.0605-.0954.0007-.1301l-1.1831-.6875c-.0634-.0369-.1645-.039-.2284-.0022z" fill="#5b5e71"/></g></g></g><g><g><g><path d="m80.643 94.4543c-.0601.0347-.0604.0954.003.1323l1.1831.6875c.0597.0347.1646.0347.2246 0l1.1908-.6875c.0639-.0369.0642-.0976.0045-.1323l-1.1831-.6875c-.0635-.0369-.1683-.0369-.2321 0z" fill="#5b5e71"/></g></g></g><g><g><g><path d="m96.8165 90.1492c-.0639.0369-.0642.0932-.0007.1301l1.1831.6875c.0635.0369.1608.0369.2246 0l3.3396-1.9281c.0638-.0369.0642-.0932.0007-.1301l-1.1831-.6875c-.0635-.0369-.1608-.0369-.2246 0z" fill="#5b5e71"/></g></g></g><g><g><g><path d="m87.1155 90.7174c-.0639.0369-.0605.0954.003.1323l1.1831.6875c.0597.0347.1608.0369.2247 0l1.1908-.6875c.0638-.0369.0604-.0954.0007-.1301l-1.1831-.6875c-.0635-.0369-.1645-.039-.2284-.0022z" fill="#5b5e71"/></g></g></g><g><g><g><path d="m90.4296 91.3203c-.0639.0369-.0604.0954-.0007.1301l1.1831.6875c.0635.0369.1646.039.2284.0022l1.1908-.6875c.0639-.0369.0604-.0954-.003-.1323l-1.1831-.6875c-.0597-.0347-.1608-.0369-.2247 0z" fill="#5b5e71"/></g></g></g><g><g><g><path d="m84.9593 91.9623c-.0639.0369-.0642.0976-.0008.1345l1.1831.6875c.0597.0347.1646.0347.2284-.0022l1.1908-.6875c.0601-.0347.0604-.0954.0007-.1301l-1.1831-.6875c-.0635-.0369-.1683-.0369-.2284-.0022z" fill="#5b5e71"/></g></g></g><g><g><g><path d="m88.2621 92.5717c-.0601.0347-.0604.0954-.0007.1301l1.1831.6875c.0635.0369.1683.0369.2284.0022l1.1946-.6897c.0601-.0347.0604-.0954-.003-.1323l-1.1831-.6875c-.0597-.0347-.1646-.0347-.2246 0z" fill="#5b5e71"/></g></g></g><g><g><g><path d="m82.7993 93.2094c-.0601.0347-.0605.0954.003.1323l1.1831.6875c.0597.0347.1646.0347.2247 0l1.1946-.6897c.0601-.0347.0605-.0954.0007-.1301l-1.1831-.6875c-.0635-.0369-.1683-.0369-.2284-.0022z" fill="#5b5e71"/></g></g></g><g><g><g><path d="m86.0983 93.821c-.0639.0369-.0604.0954-.0007.1301l1.1831.6875c.0635.0369.1646.0391.2284.0022l1.1908-.6875c.0639-.0369.0604-.0954-.003-.1323l-1.1831-.6875c-.0597-.0347-.1608-.0369-.2247 0z" fill="#5b5e71"/></g></g></g><g><g><g><path d="m83.9308 95.0724c-.0601.0347-.0604.0954-.0007.1301l1.1831.6875c.0635.0369.1683.0369.2284.0022l1.1908-.6875c.0639-.0369.0642-.0976.0007-.1345l-1.1831-.6875c-.0597-.0347-.1646-.0347-.2284.0022z" fill="#5b5e71"/></g></g></g><g><g><g><path d="m83.7889 97.6707c-.0601.0347-.0642.0933-.0008.1301l1.1831.6875c.0635.0369.1646.0347.2247 0l12.25-7.0726c.0639-.0369.0642-.0932.0008-.1301l-1.1831-.6875c-.0635-.0369-.1608-.0369-.2246 0z" fill="#5b5e71"/></g></g></g><g><g><g><path d="m92.5933 90.0711c-.0601.0347-.0604.0954-.0007.1301l1.1831.6875c.0635.0369.1683.0369.2284.0022l1.1946-.6897c.0601-.0347.0604-.0954-.003-.1323l-1.1831-.6875c-.0597-.0347-.1646-.0347-.2247 0z" fill="#5b5e71"/></g></g></g><g><g><g><path d="m94.7721 88.8131c-.0639.0369-.0642.0976-.0045.1323l1.1831.6875c.0635.0369.1683.0369.2322 0l3.2118-1.8544c.0638-.0369.0604-.0954-.003-.1323l-1.1831-.6875c-.0597-.0347-.1608-.0369-.2246 0z" fill="#5b5e71"/></g></g></g><g><g><g><path d="m88.1815 87.5855c-.0639.0369-.0642.0976-.0007.1345l1.1831.6875c.0634.0369.1646.0347.2284-.0022l1.1908-.6875c.0601-.0347.0642-.0932.0007-.1301l-1.1831-.6875c-.0634-.0369-.1683-.0369-.2284-.0022z" fill="#5b5e71"/></g></g></g><g><g><g><path d="m90.3153 86.3536c-.0639.0369-.0642.0976-.0007.1345l1.1831.6875c.0635.0369.1646.0347.2284-.0022l1.1908-.6875c.0601-.0347.0642-.0932.0007-.1301l-1.1831-.6875c-.0635-.0369-.1683-.0369-.2284-.0022z" fill="#5b5e71"/></g></g></g><g><g><g><path d="m79.7581 99.9978c-.0601.0347-.0642.0932-.0008.1301l1.1831.6875c.0635.0369.1645.0347.2247 0l2.7836-1.6071c.0639-.0369.0642-.0933.0008-.1301l-1.1831-.6875c-.0635-.0369-.1608-.0369-.2246 0z" fill="#5b5e71"/></g></g></g><g><g><g><path d="m77.586 98.7355c-.0601.0347-.0604.0954-.0007.1301l1.1831.6875c.0635.0369.1683.0369.2284.0022l3.2606-1.8825c.0639-.0369.0604-.0954-.003-.1323l-1.1831-.6875c-.0597-.0347-.1608-.0369-.2247 0z" fill="#5b5e71"/></g></g></g><g><g><g><path d="m89.2718 89.4725c-.0639.0369-.0605.0954.003.1323l1.1831.6875c.0597.0347.1608.0369.2247 0l1.1908-.6875c.0639-.0369.0605-.0954.0007-.1301l-1.1831-.6875c-.0635-.0369-.1645-.039-.2284-.0022z" fill="#5b5e71"/></g></g></g><g><g><g><path d="m77.5093 93.7472c-.0601.0347-.0604.0954.003.1323l1.1831.6875c.0635.0369.1646.0347.2247 0l1.1946-.6897c.0601-.0347.0642-.0932.0007-.1301l-1.1831-.6875c-.0635-.0369-.1683-.0369-.2284-.0022z" fill="#5b5e71"/></g></g></g><g><g><g><path d="m79.6467 92.5131c-.0639.0369-.0642.0976-.0007.1345l1.1831.6875c.0635.0369.1646.0347.2284-.0022l1.1908-.6875c.0601-.0347.0642-.0933.0007-.1301l-1.1831-.6875c-.0635-.0369-.1683-.0369-.2284-.0022z" fill="#5b5e71"/></g></g></g><g><g><g><path d="m81.7804 91.2812c-.0639.0369-.0642.0976-.0007.1345l1.1831.6875c.0634.0369.1646.0347.2284-.0022l1.1908-.6875c.0601-.0347.0642-.0933.0007-.1301l-1.1831-.6875c-.0634-.0369-.1683-.0369-.2284-.0022z" fill="#5b5e71"/></g></g></g><g><g><g><path d="m86.0478 88.8174c-.0639.0369-.0642.0976-.0007.1345l1.1831.6875c.0635.0369.1646.0347.2284-.0022l1.1908-.6875c.0601-.0347.0642-.0933.0007-.1301l-1.1831-.6875c-.0635-.0369-.1683-.0369-.2284-.0022z" fill="#5b5e71"/></g></g></g><g><g><g><path d="m83.9141 90.0493c-.0639.0369-.0642.0976-.0007.1345l1.1831.6875c.0635.0369.1646.0347.2284-.0022l1.1908-.6875c.0601-.0347.0642-.0933.0007-.1301l-1.1831-.6875c-.0635-.0369-.1683-.0369-.2284-.0022z" fill="#5b5e71"/></g></g></g><g><g><g><path d="m99.8456 80.8513c-.0639.0369-.0604.0954.003.1323l1.1831.6875c.0635.0369.1608.0369.2247 0l1.1908-.6875c.0639-.0369.0642-.0933.0007-.1301l-1.1831-.6875c-.0635-.0369-.1646-.0391-.2284-.0022z" fill="#5b5e71"/></g></g></g><g><g><g><path d="m97.7119 82.0832c-.0639.0369-.0604.0954.003.1323l1.1831.6875c.0635.0369.1608.0369.2247 0l1.1908-.6875c.0639-.0369.0642-.0933.0007-.1301l-1.1831-.6875c-.0635-.0369-.1646-.039-.2284-.0022z" fill="#5b5e71"/></g></g></g><g><g><g><path d="m102.0177 82.1136c-.0639.0369-.0605.0954.003.1323l1.1831.6875c.0597.0347.1608.0369.2247 0l1.1908-.6875c.0639-.0369.0605-.0954.0007-.1301l-1.1831-.6875c-.0635-.0369-.1645-.039-.2284-.0022z" fill="#5b5e71"/></g></g></g><g><g><g><path d="m99.884 83.3455c-.0639.0369-.0605.0954.003.1323l1.1831.6875c.0597.0347.1608.0369.2247 0l1.1908-.6875c.0639-.0369.0605-.0954.0007-.1301l-1.1831-.6875c-.0635-.0369-.1645-.039-.2284-.0022z" fill="#5b5e71"/></g></g></g><g><g><g><path d="m104.1898 83.3759c-.0639.0369-.0604.0954-.0007.1301l1.1831.6875c.0635.0369.1646.039.2284.0022l1.1908-.6875c.0639-.0369.0604-.0954-.003-.1323l-1.1831-.6875c-.0597-.0347-.1608-.0369-.2247 0z" fill="#5b5e71"/></g></g></g><g><g><g><path d="m106.3523 84.5776c-.0639.0369-.0604.0954-.0007.1301l1.1831.6875c.0635.0369.1646.0391.2284.0022l1.1908-.6875c.0639-.0369.0604-.0954-.003-.1323l-1.1831-.6875c-.0597-.0347-.1608-.0369-.2247 0z" fill="#5b5e71"/></g></g></g><g><g><g><path d="m97.7503 84.5774c-.0639.0369-.0605.0954.003.1323l1.1831.6875c.0597.0347.1608.0369.2247 0l1.1908-.6875c.0639-.0369.0605-.0954.0007-.1301l-1.1831-.6875c-.0634-.0369-.1645-.039-.2284-.0022z" fill="#5b5e71"/></g></g></g><g><g><g><path d="m102.056 84.6078c-.0639.0369-.0604.0954-.0007.1301l1.1831.6875c.0635.0369.1646.039.2284.0022l1.1908-.6875c.0639-.0369.0604-.0954-.003-.1323l-1.1831-.6875c-.0597-.0347-.1608-.0369-.2247 0z" fill="#5b5e71"/></g></g></g><g><g><g><path d="m99.9223 85.8397c-.0639.0369-.0604.0954-.0007.1301l1.1831.6875c.0635.0369.1646.0391.2284.0022l1.1908-.6875c.0639-.0369.0604-.0954-.003-.1323l-1.1831-.6875c-.0597-.0347-.1608-.0369-.2247 0z" fill="#5b5e71"/></g></g></g><g><g><g><path d="m104.2281 85.8701c-.0639.0369-.0642.0932-.0008.1301l1.1831.6875c.0635.0369.1608.0369.2246 0l1.1908-.6875c.0639-.0369.0642-.0932.0008-.1301l-1.1831-.6875c-.0635-.0369-.1608-.0369-.2247 0z" fill="#5b5e71"/></g></g></g><g><g><g><path d="m102.0944 87.102c-.0639.0369-.0642.0933-.0008.1301l1.1831.6875c.0634.0369.1608.0369.2246 0l1.1908-.6875c.0639-.0369.0642-.0932.0008-.1301l-1.1831-.6875c-.0634-.0369-.1608-.0369-.2246 0z" fill="#5b5e71"/></g></g></g><g><g><g><path d="m95.5782 83.3151c-.0639.0369-.0604.0954.003.1323l1.1831.6875c.0635.0369.1608.0369.2247 0l1.1908-.6875c.0639-.0369.0642-.0933.0007-.1301l-1.1831-.6875c-.0635-.0369-.1646-.039-.2284-.0022z" fill="#5b5e71"/></g></g></g><g><g><g><path d="m75.3756 94.9791c-.0601.0347-.0604.0954.003.1323l1.1831.6875c.0634.0369.1646.0347.2247 0l1.1946-.6897c.0601-.0347.0642-.0932.0007-.1301l-1.1831-.6875c-.0634-.0369-.1683-.0369-.2284-.0022z" fill="#5b5e71"/></g></g></g><g><g><g><path d="m73.2418 96.211c-.0601.0347-.0604.0954.003.1323l1.1831.6875c.0635.0369.1646.0347.2247 0l1.1908-.6875c.0639-.0369.0679-.0954.0045-.1323l-1.1831-.6875c-.0635-.0369-.1683-.0369-.2322 0z" fill="#5b5e71"/></g></g></g><g><g><g><path d="m87.4633 85.4753c-.0601.0347-.0604.0911-.0007.1258l.515.2993c.0597.0347.1571.0347.2172 0l1.1458-.6615c.0601-.0347.0604-.0911.0007-.1258l-.515-.2993c-.0597-.0347-.1571-.0347-.2172 0z" fill="#5b5e71"/></g></g></g><g><g><g><path d="m89.5143 84.2911c-.0601.0347-.0604.0911-.0007.1258l.515.2993c.0597.0347.1571.0347.2172 0l1.1457-.6615c.0601-.0347.0605-.0911.0007-.1258l-.515-.2993c-.0597-.0347-.1571-.0347-.2172 0z" fill="#5b5e71"/></g></g></g><g><g><g><path d="m91.5654 83.1069c-.0601.0347-.0604.0911-.0007.1258l.515.2993c.0597.0347.1571.0347.2172 0l.5775-.3334c.0601-.0347.0605-.0911.0007-.1258l-.515-.2993c-.0597-.0347-.1571-.0347-.2172 0z" fill="#5b5e71"/></g></g></g><g><g><g><path d="m95.6675 80.7385c-.0601.0347-.0604.0911-.0007.1258l.515.2993c.0597.0347.1571.0347.2172 0l1.142-.6593c.0639-.0369.0642-.0933.0045-.128l-.515-.2993c-.0597-.0347-.1571-.0347-.2209.0022z" fill="#5b5e71"/></g></g></g><g><g><g><path d="m93.6165 81.9227c-.0601.0347-.0604.0911-.0007.1258l.515.2993c.0597.0347.1571.0347.2172 0l1.1457-.6615c.0601-.0347.0605-.0911.0007-.1258l-.515-.2993c-.0597-.0347-.1571-.0347-.2172 0z" fill="#5b5e71"/></g></g></g><g><g><g><path d="m97.7186 79.5543c-.0601.0347-.0604.0911-.0007.1258l.515.2993c.0597.0347.1571.0347.2172 0l1.142-.6593c.0601-.0347.0604-.0911.0007-.1258l-.515-.2993c-.0597-.0347-.1571-.0347-.2172 0z" fill="#5b5e71"/></g></g></g><g><g><g><path d="m81.3139 89.0256c-.0601.0347-.0604.0911-.0007.1258l.515.2993c.0597.0347.1571.0347.2172 0l1.142-.6593c.0601-.0347.0604-.0911.0007-.1258l-.515-.2993c-.0597-.0347-.1571-.0347-.2172 0z" fill="#5b5e71"/></g></g></g><g><g><g><path d="m83.3649 87.8414c-.0639.0369-.0642.0932-.0045.128l.515.2993c.0597.0347.1571.0347.2209-.0022l1.142-.6593c.0601-.0347.0604-.0911.0007-.1258l-.515-.2993c-.0597-.0347-.1571-.0347-.2172 0z" fill="#5b5e71"/></g></g></g><g><g><g><path d="m85.4122 86.6594c-.0601.0347-.0604.0911-.0007.1258l.515.2993c.0597.0347.1571.0347.2172 0l1.1458-.6615c.0601-.0347.0604-.0911.0007-.1258l-.515-.2993c-.0597-.0347-.1571-.0347-.2172 0z" fill="#5b5e71"/></g></g></g><g><g><g><path d="m75.1607 92.5782c-.0601.0347-.0604.0911-.0007.1258l.515.2993c.0597.0347.1571.0347.2172 0l1.1457-.6615c.0601-.0347.0604-.0911.0007-.1258l-.515-.2993c-.0597-.0347-.1571-.0347-.2172 0z" fill="#5b5e71"/></g></g></g><g><g><g><path d="m77.2117 91.394c-.0601.0347-.0604.0911-.0007.1258l.515.2993c.0597.0347.1571.0347.2172 0l1.1457-.6615c.0601-.0347.0604-.0911.0007-.1258l-.515-.2993c-.0597-.0347-.1571-.0347-.2172 0z" fill="#5b5e71"/></g></g></g><g><g><g><path d="m79.2628 90.2098c-.0601.0347-.0604.0911-.0007.1258l.515.2993c.0597.0347.1571.0347.2172 0l1.142-.6593c.0601-.0347.0604-.0911.0007-.1258l-.515-.2993c-.0597-.0347-.1571-.0347-.2172 0z" fill="#5b5e71"/></g></g></g><g><g><g><path d="m73.1096 93.7624c-.0601.0347-.0604.0911-.0007.1258l.515.2993c.0597.0347.1571.0347.2172 0l1.1457-.6615c.0601-.0347.0604-.0911.0007-.1258l-.515-.2993c-.0597-.0347-.1571-.0347-.2172 0z" fill="#5b5e71"/></g></g></g><g><g><g><path d="m71.0585 94.9465c-.0601.0347-.0604.0911-.0007.1258l.515.2993c.0597.0347.1571.0347.2172 0l1.1457-.6615c.0601-.0347.0604-.0911.0007-.1258l-.515-.2993c-.0597-.0347-.1571-.0347-.2172 0z" fill="#5b5e71"/></g></g></g><g><g><g><path d="m71.3844 98.1009-.0029.2861 1.5541.8972.0028-.2861z" fill="#bac1ce"/></g></g></g><g><g><g><path d="m69.8961 97.2417-.0028.286.8742.5048.0029-.2861z" fill="#bac1ce"/></g></g></g><g><g><g><g><g><g><g><g><path d="m79.369 77.5825.0008.2858-1.8855 1.0886-.0008-.2858z" fill="#4c7891"/></g></g></g></g></g></g><g><g><g><g><g><g><path d="m80.5941 82.6533.0008.2858-.8213.4741-.0008-.2857z" fill="#4c7891"/></g></g></g></g></g></g><g><g><g><g><g><g><path d="m80.5908 81.4969.0008.2858-2.5969 1.4993-.0008-.2858z" fill="#4c7891"/></g></g></g></g></g></g><g><g><g><g><g><g><path d="m80.5875 80.3405.0009.2924-1.5443.8916-.0008-.2924z" fill="#4c7891"/></g></g></g></g></g></g><g><g><g><g><g><g><path d="m80.5843 79.1908.0008.2857-3.1984 1.8466-.0008-.2857z" fill="#4c7891"/></g></g></g></g></g></g><g><g><g><g><g><g><path d="m80.581 78.0344.0008.2858-4.679 2.7014-.0008-.2858z" fill="#4c7891"/></g></g></g></g></g></g><g><g><g><g><g><g><path d="m77.1538 78.8615.0008.2857-2.8572 1.6496-.0008-.2858z" fill="#4c7891"/></g></g></g></g></g></g><g><g><g><g><g><g><path d="m76.1441 78.2861.0009.2858-3.0596 1.7664-.0008-.2858z" fill="#4c7891"/></g></g></g></g></g></g><g><g><g><g><g><g><path d="m73.8158 78.4721.0008.2858-3.7131 2.1437-.0008-.2858z" fill="#4c7891"/></g></g></g></g></g></g><g><g><g><g><g><g><path d="m80.5777 76.8846.0009.2858-.7114.4107-.0008-.2857z" fill="#4c7891"/></g></g></g></g></g></g><g><g><g><g><g><g><path d="m80.5745 75.7282.0008.2858-4.0428 2.3341-.0008-.2857z" fill="#4c7891"/></g></g></g></g></g></g><g><g><g><g><g><g><path d="m80.5712 74.5718.0008.2858-1.7004.9818-.0008-.2858z" fill="#4c7891"/></g></g></g></g></g></g><g><g><g><g><g><g><path d="m78.3445 75.8574.0008.2858-4.1585 2.4009-.0008-.2858z" fill="#4c7891"/></g></g></g></g></g></g><g><g><g><g><g><g><path d="m78.5806 81.4992.0008.2924-3.048 1.7598-.0008-.2924z" fill="#4c7891"/></g></g></g></g></g></g><g><g><g><g><g><g><path d="m76.9463 81.2911.0008.2858-2.5679 1.4826-.0008-.2857z" fill="#4c7891"/></g></g></g></g></g></g><g><g><g><g><g><g><path d="m71.5816 83.2302.0008.2858-1.4691.8482-.0008-.2858z" fill="#4c7891"/></g></g></g></g></g></g><g><g><g><g><g><g><path d="m77.5949 83.2266.0008.2858-3.3546 1.9368-.0008-.2858z" fill="#4c7891"/></g></g></g></g></g></g><g><g><g><g><g><g><path d="m75.226 83.436.0009.2924-2.6085 1.506-.0008-.2924z" fill="#4c7891"/></g></g></g></g></g></g><g><g><g><g><g><g><path d="m77.4395 85.6263.0008.2924-4.0081 2.3141-.0009-.2925z" fill="#4c7891"/></g></g></g></g></g></g><g><g><g><g><g><g><path d="m74.9723 85.899.0008.2858-2.834 1.6362-.0008-.2858z" fill="#4c7891"/></g></g></g></g></g></g><g><g><g><g><g><g><path d="m72.2474 85.1557.0009.2924-2.1284 1.2288-.0009-.2924z" fill="#4c7891"/></g></g></g></g></g></g><g><g><g><g><g><g><path d="m74.1644 82.8973.0008.2858-4.0486 2.3374-.0008-.2857z" fill="#4c7891"/></g></g></g></g></g></g><g><g><g><g><g><g><path d="m75.2426 81.1165.0009.2858-3.1637 1.8265-.0008-.2858z" fill="#4c7891"/></g></g></g></g></g></g><g><g><g><g><g><g><path d="m73.6778 80.8683.0008.2858-3.5686 2.0603-.0008-.2858z" fill="#4c7891"/></g></g></g></g></g></g><g><g><g><g><g><g><path d="m72.5929 80.3364.0009.2857-2.487 1.4359-.0008-.2858z" fill="#4c7891"/></g></g></g></g></g></g><g><g><g><g><g><g><path d="m73.5173 85.5808.0009.2858-3.3951 1.9601-.0008-.2858z" fill="#4c7891"/></g></g></g></g></g></g><g><g><g><g><g><g><path d="m71.479 87.9159.0008.2858-1.3534.7814-.0008-.2858z" fill="#4c7891"/></g></g></g></g></g></g><g><g><g><g><g><g><path d="m80.5974 83.803.0008.2925-2.5217 1.4559-.0008-.2925z" fill="#4c7891"/></g></g></g></g></g></g><g><g><g><g><g><g><path d="m79.4547 83.3111.0008.2858-3.7652 2.1738-.0008-.2857z" fill="#4c7891"/></g></g></g></g></g></g><g><g><g><g><g><g><path d="m72.6795 88.3744.0008.2925-2.5506 1.4726-.0009-.2925z" fill="#4c7891"/></g></g></g></g></g></g></g></g><g><g><g><g><path d="m94.1924 69.7168.0192 6.7704 1.7778-1.0264-.0192-6.7704z" fill="#fa5168"/></g></g></g><g><g><g><path d="m90.2879 69.1188.0023.8172 1.7778-1.0264-.0024-.8171z" fill="#748bfd"/></g></g></g><g><g><g><path d="m90.2926 70.7764.0282 7.9572 1.7778-1.0264-.0283-7.9572z" fill="#748bfd"/></g></g></g><g><g><g><path d="m86.4061 72.552.0024.8287 1.7777-1.0264-.0023-.8287z" fill="#4c7891"/></g></g></g><g><g><g><path d="m86.4108 74.2095.0192 6.7704 1.7778-1.0264-.0192-6.7704z" fill="#4c7891"/></g></g></g><g><g><g><path d="m82.5168 77.3353.0224 5.891 1.7778-1.0264-.0224-5.891z" fill="#bac1ce"/></g></g></g><g><g><g><path d="m82.5121 75.6777.0024.8287 1.7778-1.0264-.0024-.8287z" fill="#bac1ce"/></g></g></g><g><g><g><path d="m94.1877 68.0593.0024.8287 1.7777-1.0264-.0023-.8287z" fill="#fa5168"/></g></g></g></g></g></g><g><g><g><path d="m77.2437 69.0606.0016.5525-7.2859 4.2065-.0016-.5524z" fill="#a4a9b3"/></g></g><g><g><path d="m96.3612 58.0232.0015.5524-5.1155 2.9535-.0016-.5525z" fill="#a4a9b3"/></g></g><g enable-background="new"><g><g><path d="m96.3658 59.669.0016.5524-13.3278 7.6948-.0015-.5524z" fill="#a4a9b3"/></g></g><g><g><path d="m88.1647 67.7029.0016.5505-10.0799 5.8196-.0016-.5505z" fill="#a4a9b3"/></g></g><g><g><path d="m76.9181 74.1961.0016.5505-6.9463 4.0105-.0016-.5506z" fill="#a4a9b3"/></g></g><g><g><path d="m96.3705 61.3148.0016.5525-26.4034 15.244-.0016-.5525z" fill="#a4a9b3"/></g></g><g><g><path d="m81.8949 68.0238.0016.5524-11.9324 6.8892-.0016-.5524z" fill="#a4a9b3"/></g></g></g><g><g><path d="m96.3752 62.9626.0015.5505-7.0219 4.0541-.0016-.5505z" fill="#a4a9b3"/></g></g><g><g><path d="m90.4 61.4649.0016.5524-11.7593 6.7892-.0016-.5524z" fill="#a4a9b3"/></g></g></g><g><g enable-background="new"><g><g><path d="m38.9276 93.986-.0144 3.0171-5.5413 3.2203.0144-3.0172z" fill="#6eba6e"/></g></g><g><g><path d="m33.3863 97.2062-.0144 3.0172-5.5732-3.2177.0144-3.0171z" fill="#75ca75"/></g></g><g><g><path d="m38.9276 93.986-5.5413 3.2202-5.5732-3.2176 5.5413-3.2203z" fill="#9ad898"/></g></g></g></g><g><g enable-background="new"><g><g><path d="m125.6831 71.8573v.9492l-10.4882 6.0951v-.9492z" fill="#4562ef"/></g></g><g><g><path d="m115.1949 77.9524v.9492l-10.5485-6.0902v-.9492z" fill="#576cfb"/></g></g><g><g><path d="m125.6831 71.8573-10.4882 6.0951-10.5485-6.0902 10.4882-6.0951z" fill="#748bfd"/></g></g></g></g><g><g enable-background="new"><g><g><path d="m125.7755 112.0624-.0144 3.0171-5.5413 3.2203.0144-3.0171z" fill="#f34858"/></g></g><g><g><path d="m120.2342 115.2827-.0144 3.0171-5.5732-3.2177.0144-3.0171z" fill="#fa5168"/></g></g><g><g><path d="m125.7755 112.0624-5.5413 3.2203-5.5732-3.2177 5.5413-3.2203z" fill="#f9607f"/></g></g></g></g></g></g></g></svg>