<svg id="Layer_1" enable-background="new 0 0 50 50" height="512" viewBox="0 0 50 50" width="512" xmlns="http://www.w3.org/2000/svg"><g><g><g><g fill="#4c5671"><g><g><path d="m9.6957 37.6824 8.0422-4.6738-.4132-.2386-7.6317 4.4352-2.664-1.5383-6.029 3.5036.4059.2348 5.6185-3.2655z"/><path d="m19.2802 33.8992-.4132-.2386-9.0394 5.2529-2.2138-1.278-4.6213 2.6855.4132.2386 4.218-2.4512 2.2138 1.278z"/><path d="m20.3133 34.4957-13.6607 7.9388.4059.2343 13.6607-7.9389z"/><path d="m13.1262 40.8179 9.0393-5.2529-.4132-.2386-9.4427 5.4876 2.2139 1.278-4.218 2.4512.4132.2386 4.6213-2.6854z"/><path d="m23.7004 36.4513-.4058-.2343-8.0422 4.6734 2.6713 1.5426-5.6184 3.265.4058.2343 6.029-3.5036-2.6713-1.5427z"/></g><g><path d="m40.3043 26.3231-8.0422 4.6738.4132.2386 7.6317-4.4352 2.664 1.5382 6.029-3.5036-.4059-.2347-5.6185 3.2655z"/><path d="m30.7198 30.1063.4132.2385 9.0394-5.2529 2.2138 1.278 4.6213-2.6854-.4132-.2386-4.218 2.4512-2.2138-1.278z"/><path d="m29.6867 29.5098 13.6607-7.9389-.4059-.2342-13.6607 7.9388z"/><path d="m36.8738 23.1876-9.0393 5.2529.4132.2385 9.4427-5.4876-2.2139-1.278 4.218-2.4512-.4132-.2385-4.6213 2.6854z"/><path d="m26.2995 27.5542.4059.2342 8.0422-4.6733-2.6714-1.5426 5.6185-3.2651-.4059-.2342-6.0289 3.5036 2.6713 1.5427z"/></g></g><g><g><path d="m40.3043 37.6824-8.0422-4.6738.4132-.2386 7.6317 4.4352 2.664-1.5383 6.029 3.5036-.4059.2348-5.6185-3.2655z"/><path d="m30.7198 33.8992.4132-.2386 9.0394 5.2529 2.2138-1.278 4.6213 2.6855-.4132.2386-4.218-2.4512-2.2138 1.278z"/><path d="m29.6867 34.4957 13.6607 7.9388-.4059.2343-13.6607-7.9389z"/><path d="m36.8738 40.8179-9.0393-5.2529.4132-.2386 9.4427 5.4876-2.2139 1.278 4.218 2.4512-.4132.2386-4.6213-2.6854z"/><path d="m26.2995 36.4513.4059-.2343 8.0422 4.6734-2.6714 1.5426 5.6185 3.265-.4059.2343-6.0289-3.5036 2.6713-1.5427z"/></g><g><path d="m9.6957 26.3231 8.0422 4.6738-.4132.2386-7.6317-4.4352-2.664 1.5382-6.029-3.5036.4059-.2347 5.6185 3.2655z"/><path d="m19.2802 30.1063-.4132.2385-9.0394-5.2529-2.2138 1.278-4.6213-2.6854.4132-.2386 4.218 2.4512 2.2138-1.278z"/><path d="m20.3133 29.5098-13.6607-7.9389.4059-.2342 13.6607 7.9388z"/><path d="m13.1262 23.1876 9.0393 5.2529-.4132.2385-9.4427-5.4876 2.2139-1.278-4.218-2.4512.4132-.2385 4.6213 2.6854z"/><path d="m23.7004 27.5542-.4058.2342-8.0422-4.6733 2.6713-1.5426-5.6184-3.2651.4058-.2342 6.029 3.5036-2.6713 1.5427z"/></g></g></g><g><g><g><path d="m38.4574 35.4422-12.1888 7.0838c-.6736.3891-1.7683.3891-2.4419 0l-12.2835-7.0838c-.6631-.3896-.6737-1.0212 0-1.4211l12.1888-7.0838c.6737-.3896 1.7683-.3896 2.442 0l12.2729 7.094c.6841.3896.6841 1.0213.0105 1.4109z" fill="#fff"/></g><path d="m38.4497 34.0289-12.2764-7.0879c-.6731-.3885-1.7677-.3916-2.4418 0l-12.1912 7.0848c-.6742.3921-.6652 1.0258.0079 1.4144l12.2765 7.0879c.6786.3916 1.7676.3916 2.4418 0l12.1912-7.0848c.6742-.3916.6706-1.0227-.008-1.4144zm-.2558.9596-12.1919 7.0842c-.5073.296-1.4026.295-1.9145-.0005l-12.2762-7.0879c-.1943-.112-.2462-.2159-.2462-.2549 0-.0375.0499-.1383.24-.2487l12.1909-7.0843c.2539-.148.6039-.221.9549-.221s.7031.0735.959.2215l12.2767 7.0879c.1819.1048.2477.2097.2477.2544.0001.0437-.0636.1465-.2404.2493z" fill="#5793fb"/></g><g><g><g><path d="m38.9607 27.6557-.0087 5.1865c0 .2591-.1642.5097-.5012.7085l-12.1935 7.0776c-.674.3975-1.7629.3975-2.437 0l-12.2799-7.086c-.337-.1987-.5099-.4494-.5099-.7089l.0086-5.1949c0 .2591.1728.5182.5098.7173l12.28 7.086c.6741.389 1.7629.389 2.437 0l12.1935-7.086c.3371-.1992.5013-.4494.5013-.7001z" fill="#3a53d0"/></g><g><path d="m38.4497 26.9409c.6786.3918.6821 1.0226.0079 1.4144l-12.1912 7.0847c-.6742.3918-1.7632.3918-2.4418 0l-12.2764-7.0878c-.6731-.3886-.6821-1.0226-.0079-1.4144l12.1912-7.0847c.6742-.3918 1.7687-.3887 2.4418 0z" fill="#5793fb"/></g><g><path d="m38.4576 27.6278-12.1912 7.085c-.6742.3917-1.7632.3917-2.4418 0l-12.2764-7.0881c-.1777-.1023-.3024-.2228-.3872-.3506-.2463.3609-.1156.7877.3872 1.0783l12.2764 7.0875c.6786.3917 1.7676.3917 2.4418 0l12.1912-7.0844c.4974-.2894.62-.7078.3807-1.065-.0838.1229-.2093.238-.3807.3373z" fill="#7bb1ff"/></g></g><g><g><g><path d="m29.3437 35.9429.007 1.8795.686-.396-.007-1.8796z" fill="#7bb1ff"/></g><g><path d="m28.0107 36.7125.0069 1.8796.6895-.3981-.0069-1.8796z" fill="#7bb1ff"/></g><g><path d="m26.6812 37.4801.0069 1.8795.686-.396-.007-1.8795z" fill="#7bb1ff"/></g></g></g></g><g><g><g><path d="m38.9607 19.9094-.0087 5.1865c0 .2591-.1642.5097-.5012.7085l-12.1935 7.0776c-.674.3975-1.7629.3975-2.437 0l-12.2799-7.086c-.337-.1987-.5099-.4494-.5099-.7089l.0086-5.1949c0 .2591.1728.5182.5098.7173l12.28 7.086c.6741.389 1.7629.389 2.437 0l12.1935-7.086c.3371-.1993.5013-.4495.5013-.7001z" fill="#3a53d0"/></g><g><path d="m38.4497 19.1945c.6786.3918.6821 1.0226.0079 1.4144l-12.1912 7.0847c-.6742.3918-1.7632.3918-2.4418 0l-12.2764-7.0878c-.6731-.3886-.6821-1.0226-.0079-1.4144l12.1912-7.0847c.6742-.3918 1.7687-.3887 2.4418 0z" fill="#5793fb"/></g><g><path d="m38.4576 19.8814-12.1912 7.085c-.6742.3917-1.7632.3917-2.4418 0l-12.2764-7.0881c-.1777-.1023-.3024-.2228-.3872-.3506-.2463.3608-.1156.7877.3872 1.0783l12.2764 7.0875c.6786.3917 1.7676.3917 2.4418 0l12.1912-7.0844c.4974-.2894.62-.7078.3807-1.065-.0838.123-.2093.238-.3807.3373z" fill="#7bb1ff"/></g></g><g><g><g><path d="m29.3437 28.1965.007 1.8795.686-.396-.007-1.8796z" fill="#7bb1ff"/></g><g><path d="m28.0107 28.9661.0069 1.8796.6895-.3981-.0069-1.8796z" fill="#7bb1ff"/></g><g><path d="m26.6812 29.7337.0069 1.8796.686-.3961-.007-1.8795z" fill="#7bb1ff"/></g></g></g></g><g><g><g><path d="m38.9607 12.163-.0087 5.1865c0 .2591-.1642.5097-.5012.7085l-12.1935 7.0776c-.674.3975-1.7629.3975-2.437 0l-12.2799-7.086c-.337-.1987-.5099-.4494-.5099-.7089l.0086-5.1949c0 .2591.1728.5182.5098.7173l12.28 7.086c.6741.389 1.7629.389 2.437 0l12.1935-7.086c.3371-.1992.5013-.4495.5013-.7001z" fill="#3a53d0"/></g><g><path d="m38.4497 11.4482c.6786.3918.6821 1.0226.0079 1.4144l-12.1912 7.0847c-.6742.3918-1.7632.3919-2.4418 0l-12.2764-7.0878c-.6731-.3886-.6821-1.0226-.0079-1.4144l12.1912-7.0847c.6742-.3918 1.7687-.3887 2.4418 0z" fill="#5793fb"/><g><path d="m16.6724 12.2778 8.2689-4.8051 8.3849 4.8409-8.2696 4.8051z" fill="#3a53d0"/></g></g><g><path d="m38.4576 12.135-12.1912 7.085c-.6742.3917-1.7632.3917-2.4418 0l-12.2764-7.088c-.1777-.1023-.3024-.2228-.3872-.3506-.2463.3609-.1156.7877.3872 1.0783l12.2764 7.0875c.6786.3917 1.7676.3917 2.4418 0l12.1912-7.0844c.4974-.2894.62-.7078.3807-1.065-.0838.1229-.2093.2379-.3807.3372z" fill="#7bb1ff"/></g></g><g><g><g><path d="m29.3437 20.4501.007 1.8796.686-.3961-.007-1.8795z" fill="#7bb1ff"/></g><g><path d="m28.0107 21.2198.0069 1.8795.6895-.3981-.0069-1.8795z" fill="#7bb1ff"/></g><g><path d="m26.6812 21.9874.0069 1.8795.686-.396-.007-1.8796z" fill="#7bb1ff"/></g></g></g></g></g></g><g><path d="m35.0413 31.3834c-.2393.138-.4314.4741-.4306.7489.0008.2719.1941.3851.4335.247.2394-.138.4314-.4741.4306-.7459-.0008-.2749-.1941-.3887-.4335-.25z" fill="#96d696"/><path d="m36.3258 30.6417c-.2394.138-.4343.4759-.4336.7508.0008.2718.197.3833.4364.2452.2364-.1362.4314-.4741.4306-.7459-.0007-.2749-.1969-.3869-.4334-.2501z" fill="#ed5d71"/><path d="m37.6074 29.9018c-.2394.138-.4314.4741-.4306.7489.0008.2718.194.3851.4334.247.2394-.138.4315-.4741.4307-.7459-.0009-.2748-.1942-.3886-.4335-.25z" fill="#ffdd94"/><path d="m35.0413 23.637c-.2393.138-.4314.4741-.4306.7489.0008.2719.1941.3851.4335.247.2394-.138.4314-.4741.4306-.7459-.0008-.2748-.1941-.3887-.4335-.25z" fill="#96d696"/><path d="m36.3258 22.8953c-.2394.138-.4343.4759-.4336.7508.0008.2718.197.3833.4364.2452.2364-.1362.4314-.4741.4306-.7459-.0007-.2749-.1969-.3869-.4334-.2501z" fill="#ed5d71"/><path d="m37.6074 22.1555c-.2394.138-.4314.4741-.4306.7489.0008.2718.194.3851.4334.247.2394-.138.4315-.4741.4307-.7459-.0009-.2749-.1942-.3887-.4335-.25z" fill="#ffdd94"/><path d="m35.0413 15.8906c-.2393.138-.4314.4741-.4306.7489.0008.2718.1941.3851.4335.247.2394-.138.4314-.4741.4306-.7459-.0008-.2748-.1941-.3886-.4335-.25z" fill="#96d696"/><path d="m36.3258 15.1489c-.2394.138-.4343.4759-.4336.7508.0008.2718.197.3833.4364.2452.2364-.1362.4314-.4741.4306-.7459-.0007-.2749-.1969-.3869-.4334-.2501z" fill="#ed5d71"/><path d="m37.6074 14.4091c-.2394.138-.4314.4741-.4306.7489.0008.2718.194.3851.4334.247.2394-.138.4315-.4741.4307-.7459-.0009-.2748-.1942-.3887-.4335-.25z" fill="#ffdd94"/></g></g></g></svg>