<svg id="Layer_1" enable-background="new 0 0 51 51" height="512" viewBox="0 0 51 51" width="512" xmlns="http://www.w3.org/2000/svg"><g><g><path d="m44.83874 30.47415.01195 5.46932c.00089.30258.1991.60452.59489.83448.8018.46594 2.10325.46464 2.90798 0 .40467-.23364.60693-.54004.60605-.84624l-.0119-5.45756z" fill="#3f434f"/></g><g><path d="m23.40588 42.84723.01195 5.46931c.00088.30259.1991.60452.59489.83449.8018.46593 2.10325.46463 2.90798 0 .40467-.23364.60693-.54004.60605-.84625l-.0119-5.45755z" fill="#3f434f"/></g><g><path d="m1.98398 30.48998.01195 5.46932c.00088.30258.1991.60452.59489.83448.80181.46594 2.10325.46464 2.90798 0 .40467-.23364.60693-.54004.60605-.84624l-.0119-5.45756z" fill="#3f434f"/></g><g fill="#d4d6d6"><path d="m25.07448 12.1576c-.7348.04655-1.44681.23257-2.00666.5579l-17.22731 10.01142c-.56047.32574-.88003.7385-.95915 1.16388-.00946 3.35725-.01906 6.71419-.02852 10.07143.07908-.42538.39864-.83811.95911-1.16385l17.22732-10.01141c.55985-.32536 1.27186-.51138 2.00666-.55793.24566-.01556.49387-.01553.73977.0001.73631.04675 1.45212.23332 2.01769.55988l.02859-10.07147c-.56564-.32656-1.28152-.51313-2.0179-.55988-.24587-.01563-.494-.01563-.7396-.00007z"/><path d="m45.17197 22.72883-17.33999-10.01127-.02855 10.07147 17.33999 10.01125c.56492.32615.8886.74046.97063 1.16717.00946-3.35725.01906-6.71415.02855-10.07143-.08203-.42676-.40571-.84104-.97063-1.16719z"/></g><g><path d="m46.11403 33.96747c-.00925-.09852.00065-.23088.00093-.32983.0024-.84814.00483-1.69625.00722-2.5444.0027-.95801.00545-1.91596.00815-2.87397.00406-1.44112.00819-2.88213.01225-4.32325.01414.0735.0211.14738.02089.22124l-.02857 10.07146c.00022-.07387-.00674-.14775-.02087-.22125z" fill="#ecf0f1"/></g><g><path d="m4.85283 33.96224c-.0128.06886-.0193.13805-.0195.20725l.02855-10.07145c.0002-.06921.0067-.13839.0195-.20725-.00948 3.35726-.01909 6.71419-.02855 10.07145z" fill="#ecf0f1"/></g><g><path d="m44.57345 23.07247c.98963.57137.99485 1.4988.01165 2.07017l-17.22375 10.00935c-.9832.57138-2.58433.57138-3.57396.00002l-17.33641-10.00918c-.98963-.57136-.99485-1.4988-.01165-2.07017l17.22376-10.00935c.9832-.57137 2.58433-.57138 3.57396-.00002z" fill="#e0e2e2"/></g><path d="m44.58511 25.14264-17.22375 10.00935c-.98321.57137-2.58433.57137-3.57395 0l-17.33642-10.00918c-.49798-.28752-.74673-.66518-.74567-1.0423l-.02852 10.07146c-.0011.37708.24765.75478.74563 1.0423l17.33642 10.00919c.98962.57137 2.59074.57137 3.57395-.00003l17.22376-10.00933c.48845-.28388.73295-.65559.73398-1.02787l.02859-10.07147c-.00107.37229-.24557.74403-.73402 1.02788z" fill="#c4c6c6"/><g><path d="m48.22189 22.96688c1.09363.63141 1.09581 1.65199.01286 2.28134l-20.67563 12.01535c-1.08649.6314-2.84846.63349-3.94209.00208l-20.81087-12.01516c-1.09362-.6314-1.09576-1.65199-.00926-2.2834l20.67562-12.01536c1.08296-.62935 2.84488-.63143 3.9385-.00003zm-20.26174 12.53083 17.22732-10.01142c1.30738-.75977 1.30041-1.99772-.01551-2.75747l-17.34-10.01125c-1.31951-.76182-3.45675-.76182-4.76413-.00206l-17.22731 10.01143c-1.31093.76183-1.30392 1.99979.01558 2.76161l17.34 10.01126c1.31592.75973 3.45312.75973 4.76405-.0021" fill="#ecf0f1"/></g><path d="m48.23474 25.24821-20.6756 12.01536c-1.08648.63139-2.84847.63348-3.94209.00206l-20.81086-12.01516c-.54943-.3172-.82337-.73264-.82221-1.14757l-.02852 10.07144c-.0012.41496.27274.8304.82217 1.1476l20.81087 12.01516c1.09361.63142 2.8556.62933 3.94209-.00209l20.67561-12.01533c.53846-.31292.80863-.72256.8098-1.13297l.02855-10.07147c-.00118.41044-.27135.82005-.80981 1.13297z" fill="#e0e2e2"/><g><g><g enable-background="new"><g><path d="m34.61805 21.09469.00001.48475c-.00258.91271-.6031 1.82408-1.80275 2.52124-2.41467 1.40325-6.33578 1.40332-8.76625.00009-1.22312-.70617-1.83397-1.63211-1.83135-2.55663l-.00004-.48472c-.00259.92452.60826 1.85046 1.83137 2.55663 2.43047 1.40323 6.35158 1.40316 8.76625-.00009 1.19965-.69717 1.80017-1.60854 1.80276-2.52127z" fill="#3f434f"/></g><g><path d="m32.78684 18.53819c2.43047 1.40323 2.44321 3.67446.02845 5.07776-2.41467 1.40325-6.33578 1.40332-8.76625.00009-2.43064-1.40333-2.44333-3.67458-.02867-5.07784 2.41476-1.4033 6.33583-1.40334 8.76647-.00001z" fill="#525566"/></g></g></g><g><g><path d="m24.73671 18.96297c-2.04784 1.18232-2.05857 3.09599-.02397 4.27837 2.03453 1.18234 5.33834 1.1824 7.38618.00008 2.04798-1.1824 2.05868-3.0961.02415-4.27844-2.0346-1.18238-5.33838-1.18241-7.38636-.00001z" fill="#5b5e71"/></g><g><g enable-background="new"><g><path d="m26.88753 6.82417.03095 14.18954c.00063.22312.14681.44574.43862.61532.59122.34358 1.55085.34261 2.14424.00001.29838-.17227.44751-.39821.44687-.62397l-.03094-14.18954c.00064.22576-.14849.4517-.44687.62397-.5934.3426-1.55302.34357-2.14424 0-.29181-.16959-.43799-.39221-.43863-.61533z" fill="#3f434f"/></g><g><path d="m27.33484 6.19846c-.59339.34259-.59651.89943-.00868 1.24104.59122.34358 1.55085.3426 2.14424.00001s.59649-.89745.00528-1.24103c-.58784-.34162-1.54745-.34262-2.14084-.00002z" fill="#2e414c"/></g></g></g><g><path d="m23.19378 6.72721c0 2.88485 2.33922 5.22409 5.22409 5.22409 1.72778 0 3.26114-.84037 4.21127-2.13541.63969-.86546 1.01283-1.9316 1.01283-3.08868 0-2.88797-2.33922-5.22721-5.22409-5.22721-.75885 0-1.48004.16306-2.12912.45468-1.825.81528-3.09498 2.6434-3.09498 4.77253z" fill="#c14242"/><path d="m25.27589 5.04962c0 2.88485 2.33926 5.22407 5.22095 5.22407.75882 0 1.48004-.16304 2.1323-.4578.63969-.86546 1.01283-1.9316 1.01283-3.08868 0-2.88797-2.33922-5.22721-5.22409-5.22721-.75885 0-1.48004.16306-2.12912.45468-.63656.86546-1.01287 1.93472-1.01287 3.09494z" fill="#e74c3c"/></g></g><g><g><g enable-background="new"><g><path d="m17.42506 24.13388v.29446c-.00157.55442-.36636 1.10804-1.09508 1.53153-1.46679.85241-3.84867.85245-5.32506.00005-.74298-.42896-1.11404-.99143-1.11245-1.55303l-.00002-.29444c-.00158.5616.36948 1.12406 1.11247 1.55303 1.47639.85239 3.85827.85235 5.32506-.00006.72873-.42348 1.09351-.9771 1.09508-1.53154z" fill="#525566"/></g><g><path d="m16.31269 22.58094c1.47639.85239 1.48413 2.23205.01728 3.08449-1.46679.85241-3.84867.85245-5.32506.00006-1.47649-.85245-1.4842-2.23213-.01741-3.08453 1.46685-.85245 3.84871-.85247 5.32519-.00002z" fill="#5b5e71"/></g></g></g><g><g enable-background="new"><g><path d="m16.66567 22.87522-.00865 1.22389c-.00123.43484-.28732.86902-.85883 1.20115-1.1504.66854-3.01845.66856-4.17636.00004-.58271-.33643-.87374-.77756-.87249-1.21802l.00863-1.22389c-.00124.44045.28979.88158.8725 1.21801 1.15791.66852 3.02596.6685 4.17636-.00004.57152-.33211.85761-.7663.85884-1.20114z" fill="#c44"/></g><g><path d="m15.79325 21.65727c1.15791.66852 1.16398 1.75056.01358 2.4191s-3.01845.66856-4.17636.00004c-1.15799-.66856-1.16406-1.75061-.01366-2.41915s3.01846-.66855 4.17644.00001z" fill="#e74c3c"/></g></g></g></g><g><g><g enable-background="new"><g><path d="m28.47296 30.50074.00001.29593c-.00158.55717-.36818 1.11354-1.10052 1.53913-1.47408.85664-3.86778.85668-5.3515.00005-.74667-.43109-1.11957-.99635-1.11798-1.56074l-.00002-.2959c-.00159.56439.37132 1.12964 1.11799 1.56074 1.48372.85662 3.87742.85658 5.3515-.00005.73235-.42561 1.09894-.98197 1.10052-1.53916z" fill="#525566"/></g><g><path d="m27.35507 28.94009c1.48372.85662 1.4915 2.24313.01737 3.0998-1.47407.85664-3.86778.85668-5.3515.00005-1.48382-.85668-1.49157-2.24321-.0175-3.09984 1.47413-.85667 3.86781-.8567 5.35163-.00001z" fill="#5b5e71"/></g></g></g><g><g enable-background="new"><g><path d="m27.69487 29.24276-.00865 1.22389c-.00123.43484-.28732.86902-.85884 1.20115-1.1504.66854-3.01845.66856-4.17636.00004-.58271-.33643-.87374-.77756-.87249-1.21802l.00863-1.22389c-.00124.44045.28979.88158.8725 1.21801 1.15791.66852 3.02596.6685 4.17636-.00004.57153-.33212.85762-.76631.85885-1.20114z" fill="#c44"/></g><g><path d="m26.82245 28.02481c1.15791.66852 1.16398 1.75056.01358 2.4191s-3.01845.66856-4.17636.00004c-1.15799-.66857-1.16406-1.75061-.01366-2.41915s3.01845-.66856 4.17644.00001z" fill="#e74c3c"/></g></g></g></g></g></g></svg>