<svg viewBox="0 0 143 32" fill="currentColor" xmlns="http://www.w3.org/2000/svg" data-testid="snowflake-clickable-logo" class="logo-img" aria-label="Snowflake logo" role="img"><path fill-rule="evenodd" clip-rule="evenodd" d="M140.304 9.44953H139.929V9.90509H140.304C140.479 9.90509 140.591 9.82686 140.591 9.68191C140.591 9.52775 140.486 9.44953 140.304 9.44953ZM139.467 9.02847H140.314C140.775 9.02847 141.081 9.27696 141.081 9.6658C141.081 9.90739 140.959 10.0869 140.775 10.1996L141.106 10.6736V10.7679H140.626L140.304 10.3123H139.929V10.7679H139.467V9.02847ZM141.829 9.9304C141.829 9.00086 141.202 8.29451 140.241 8.29451C139.299 8.29451 138.672 8.96635 138.672 9.9304C138.672 10.8507 139.299 11.5663 140.241 11.5663C141.202 11.5663 141.829 10.8599 141.829 9.9304ZM142.223 9.9304C142.223 11.0233 141.482 11.9367 140.244 11.9367C139.015 11.9367 138.281 11.0164 138.281 9.9304C138.281 8.8375 139.013 7.92407 140.244 7.92407C141.482 7.92637 142.223 8.8375 142.223 9.9304ZM31.2666 13.8211L27.4455 16.0023L31.2666 18.1766C32.2318 18.7265 32.5605 19.9413 32.0033 20.8939C31.4461 21.8418 30.2151 22.1662 29.2546 21.6186L22.4097 17.7187C21.9528 17.4564 21.6357 17.0469 21.4959 16.5844C21.4282 16.3727 21.3979 16.1542 21.4049 15.9379C21.4096 15.7814 21.4329 15.625 21.4749 15.4685C21.6124 14.983 21.9318 14.5482 22.4074 14.2744L29.25 10.3791C30.2105 9.83146 31.4438 10.1559 31.9986 11.1084C32.5605 12.0587 32.2318 13.2712 31.2666 13.8211ZM27.6483 24.3888L20.8081 20.4958C20.4397 20.2842 20.0341 20.2036 19.6424 20.2358C18.598 20.3095 17.7797 21.17 17.7797 22.2169V30.0121C17.7797 31.1119 18.6772 32 19.7916 32C20.906 32 21.8059 31.1096 21.8059 30.0121V25.652L25.6363 27.8332C26.5992 28.3854 27.8302 28.0587 28.385 27.1084C28.9399 26.1582 28.6135 24.9387 27.6483 24.3888ZM19.7543 16.7639L16.9101 19.5663C16.8285 19.6491 16.6723 19.7158 16.5534 19.7158H16.3482H15.9286H15.7187C15.6045 19.7158 15.4436 19.6491 15.362 19.5663L12.5178 16.7639C12.4362 16.6856 12.3709 16.5269 12.3709 16.4142V16.2071V15.7929V15.5882C12.3709 15.4731 12.4362 15.3144 12.5178 15.2338L15.3597 12.4314C15.4413 12.3486 15.6022 12.2842 15.7164 12.2842H15.9262H16.3459H16.5534C16.6699 12.2842 16.8285 12.3486 16.9101 12.4314L19.7543 15.2338C19.8359 15.3144 19.9012 15.4731 19.9012 15.5882V15.7929V16.2071V16.4142C19.9012 16.5246 19.8359 16.6833 19.7543 16.7639ZM17.4813 15.9862C17.4813 15.8735 17.4113 15.7147 17.3297 15.6319L16.5067 14.822C16.4251 14.7414 16.2666 14.6747 16.15 14.6747H16.1174C16.0032 14.6747 15.8423 14.7414 15.763 14.822L14.9401 15.6319C14.8585 15.7147 14.7955 15.8735 14.7955 15.9862V16.0184C14.7955 16.1311 14.8585 16.2876 14.9401 16.3681L15.763 17.1803C15.8446 17.2609 16.0032 17.3276 16.1174 17.3276H16.15C16.2643 17.3276 16.4251 17.2609 16.5067 17.1803L17.3297 16.3681C17.4113 16.2876 17.4813 16.1311 17.4813 16.0184V15.9862ZM4.62381 7.60656L11.4663 11.5042C11.8347 11.7135 12.2427 11.7964 12.6344 11.7642C13.6765 11.6882 14.4971 10.8277 14.4971 9.78085V1.98562C14.4971 0.890423 13.5949 0 12.4851 0C11.3708 0 10.4709 0.890423 10.4709 1.98562V6.348L6.6381 4.16221C5.67758 3.61231 4.44662 3.93903 3.88943 4.88927C3.33223 5.84412 3.66096 7.05666 4.62381 7.60656ZM19.6424 11.7642C20.0341 11.7964 20.4421 11.7135 20.8081 11.5042L27.6483 7.60656C28.6112 7.05666 28.9399 5.84182 28.385 4.88927C27.8302 3.93903 26.5992 3.61461 25.6363 4.16221L21.8059 6.348V1.98562C21.8059 0.890423 20.906 0 19.7916 0C18.6772 0 17.7797 0.890423 17.7797 1.98562V9.78085C17.7773 10.8277 18.598 11.6882 19.6424 11.7642ZM12.6344 20.2358C12.2404 20.2036 11.8324 20.2842 11.4663 20.4958L4.62381 24.3888C3.66096 24.9387 3.33223 26.1582 3.8871 27.1084C4.44429 28.0564 5.67525 28.3831 6.63577 27.8332L10.4685 25.652V30.0121C10.4685 31.1119 11.3684 32 12.4828 32C13.5925 32 14.4948 31.1096 14.4948 30.0121V22.2169C14.4971 21.17 13.6765 20.3095 12.6344 20.2358ZM10.7786 16.5844C10.8462 16.3727 10.8742 16.1542 10.8695 15.9379C10.8625 15.7814 10.8415 15.625 10.7972 15.4685C10.662 14.983 10.3403 14.5482 9.86004 14.2744L3.02216 10.3791C2.05698 9.83146 0.826022 10.1559 0.27349 11.1084C-0.286036 12.0587 0.045017 13.2712 1.0102 13.8211L4.8313 16.0023L1.00787 18.1766C0.0426857 18.7265 -0.286036 19.9413 0.271159 20.8939C0.826022 21.8418 2.05465 22.1662 3.01983 21.6186L9.85771 17.7187C10.3216 17.4587 10.6341 17.0469 10.7786 16.5844ZM95.6471 4.93529H95.4582C95.4326 4.93529 95.4093 4.93759 95.3836 4.93989C95.3603 4.93759 95.337 4.93529 95.3113 4.93529C94.8264 4.93529 94.3532 4.99051 93.9125 5.13546C93.4789 5.27811 93.0779 5.5128 92.7678 5.87173L92.7655 5.86943V5.87173V5.87403C92.4438 6.22606 92.234 6.64711 92.1034 7.12568C91.9752 7.60656 91.9216 8.14725 91.9169 8.76388V9.95571H90.5857C90.1241 9.95801 89.7557 10.3238 89.7557 10.7656C89.7534 11.0026 89.8466 11.2212 89.9982 11.3799C90.152 11.5341 90.3619 11.6376 90.595 11.6491H91.9169V21.3448L91.9146 21.3678C91.9146 21.5956 92.0101 21.805 92.1663 21.9546C92.3202 22.1018 92.537 22.1892 92.7725 22.1892C93.2201 22.1869 93.5885 21.8257 93.5908 21.3655V11.6445H95.0223C95.2531 11.633 95.4652 11.5364 95.6168 11.3822C95.773 11.2281 95.8685 11.0118 95.8685 10.7771V10.7449C95.8639 10.3077 95.4932 9.95111 95.0316 9.95111H93.5908V8.76388C93.6001 8.23929 93.6561 7.84584 93.7353 7.56054C93.8123 7.27294 93.9195 7.09347 94.0128 6.98073C94.106 6.88179 94.2273 6.79896 94.4231 6.73224C94.6213 6.66782 94.8964 6.6287 95.2671 6.6287H95.3113C95.3323 6.6287 95.3556 6.6241 95.3766 6.6241C95.4023 6.6241 95.4279 6.6287 95.4536 6.6287H95.5608H95.6401C96.1157 6.6287 96.498 6.24906 96.498 5.782C96.505 5.31263 96.1227 4.93529 95.6471 4.93529ZM125.162 11.2235C125.33 11.0601 125.421 10.8415 125.421 10.6253C125.421 10.4136 125.33 10.1996 125.16 10.0454H125.162C125.16 10.0408 125.157 10.0408 125.157 10.0408C125.157 10.0362 125.153 10.0362 125.153 10.0362H125.15C124.987 9.87748 124.78 9.79235 124.563 9.79235C124.346 9.79235 124.132 9.88208 123.971 10.0408L117.382 16.3773V5.72908C117.382 5.27121 116.993 4.89617 116.515 4.89617C116.284 4.89617 116.074 4.99051 115.923 5.14236C115.774 5.29192 115.673 5.50129 115.673 5.72908V21.3195C115.673 21.5473 115.774 21.7567 115.923 21.9039C116.074 22.0512 116.284 22.1501 116.515 22.1501C116.993 22.1501 117.382 21.7797 117.382 21.3218V18.7472L119.527 16.6327L123.901 21.8395C123.982 21.9592 124.094 22.042 124.206 22.0857C124.332 22.1317 124.456 22.1501 124.565 22.1501C124.717 22.1501 124.929 22.1179 125.115 21.973L125.125 21.9661L125.136 21.9546C125.311 21.7843 125.412 21.5565 125.412 21.3264C125.412 21.1309 125.339 20.933 125.204 20.7742V20.7719L120.751 15.4317L125.157 11.2258H125.162V11.2235ZM113.265 10.1513C113.421 10.3008 113.517 10.5148 113.517 10.7472V21.3195C113.517 21.5473 113.419 21.7567 113.27 21.9039C113.118 22.0512 112.908 22.1501 112.675 22.1501C112.445 22.1501 112.23 22.0512 112.081 21.9039C111.929 21.7567 111.831 21.5473 111.831 21.3195V20.2888C110.771 21.4185 109.281 22.1501 107.633 22.1501C105.991 22.1501 104.516 21.4553 103.457 20.3394C102.396 19.2304 101.746 17.7026 101.746 16.0345C101.746 14.3664 102.396 12.8364 103.457 11.7274C104.516 10.6137 105.991 9.9212 107.633 9.9212C109.281 9.9212 110.771 10.6299 111.831 11.755V10.7495C111.831 10.5171 111.927 10.3031 112.083 10.1536C112.239 10.0063 112.449 9.9212 112.675 9.9212C112.899 9.9212 113.111 10.0063 113.265 10.1513ZM111.831 16.0345C111.831 14.7852 111.353 13.6647 110.589 12.8548C109.826 12.0495 108.777 11.5594 107.633 11.5571C106.497 11.5571 105.453 12.0495 104.681 12.8548C103.916 13.6647 103.431 14.7829 103.431 16.0345C103.431 17.2839 103.916 18.3952 104.681 19.1982C105.448 20.0012 106.495 20.4843 107.633 20.4843C108.782 20.4843 109.829 20.0012 110.591 19.2005C111.353 18.3975 111.831 17.2839 111.831 16.0345ZM44.0168 15.7377C43.336 15.4202 42.5644 15.1878 41.795 14.9347C41.0863 14.6977 40.3682 14.4976 39.8553 14.233C39.5965 14.0972 39.396 13.9523 39.2655 13.7912C39.1326 13.6301 39.0673 13.4645 39.065 13.2413C39.0673 12.9353 39.1559 12.6891 39.3074 12.4682C39.5382 12.1415 39.9252 11.8861 40.3472 11.7227C40.7645 11.5571 41.2168 11.4789 41.5409 11.4789C42.4967 11.4812 43.1006 11.7941 43.5645 12.1208C43.793 12.2842 43.9865 12.4521 44.1707 12.5879C44.2639 12.6592 44.3525 12.7236 44.4551 12.7719C44.5507 12.8179 44.6649 12.8571 44.7885 12.8571C44.8677 12.8571 44.9447 12.8433 45.0169 12.8133C45.0939 12.7834 45.1591 12.7397 45.2221 12.6868C45.2827 12.6293 45.3363 12.5603 45.3736 12.4843C45.4063 12.4061 45.4226 12.3233 45.4226 12.245C45.4226 12.0978 45.376 11.9597 45.306 11.8286C45.1778 11.6008 44.982 11.3822 44.7325 11.1613C44.3618 10.8346 43.8722 10.5263 43.3454 10.2916C42.8161 10.0569 42.2496 9.89819 41.7111 9.89819C40.4591 9.89819 39.4147 10.1789 38.657 10.6943C38.2607 10.9635 37.9133 11.258 37.6685 11.6652C37.419 12.0725 37.2792 12.5764 37.2605 13.2321C37.2605 13.262 37.2605 13.2896 37.2605 13.3195C37.2582 13.9546 37.4657 14.4791 37.7921 14.891C38.2863 15.5099 39.0207 15.8781 39.7411 16.1404C40.4591 16.4026 41.1795 16.5591 41.6318 16.7087C42.2706 16.918 42.949 17.1458 43.4456 17.4472C43.6927 17.6014 43.8909 17.767 44.0261 17.9488C44.1567 18.1352 44.2313 18.3284 44.2359 18.5723V18.5907C44.2336 18.9451 44.1287 19.2212 43.9538 19.4582C43.6904 19.8125 43.2544 20.0702 42.7905 20.2358C42.3289 20.3969 41.8463 20.4636 41.5385 20.4636C40.4475 20.4636 39.7178 20.2036 39.1862 19.9436C38.9204 19.8125 38.7059 19.6836 38.5101 19.5732C38.4145 19.5203 38.3236 19.472 38.228 19.4351C38.1348 19.3983 38.0368 19.373 37.9249 19.373C37.8573 19.373 37.7827 19.3845 37.7128 19.4121C37.6428 19.442 37.5799 19.4812 37.5263 19.5318C37.454 19.6008 37.3887 19.6813 37.3444 19.7711C37.3001 19.8608 37.2792 19.9574 37.2792 20.0564C37.2792 20.2197 37.3398 20.367 37.4284 20.5027C37.5659 20.6983 37.7687 20.8709 38.0205 21.0457C38.2816 21.2183 38.5917 21.3863 38.9484 21.5542C39.7434 21.9246 40.7599 22.1179 41.5339 22.1294H41.5362C42.7392 22.1294 43.7767 21.8556 44.6509 21.2206V21.2183H44.6532C45.5089 20.5833 46.0404 19.6376 46.0404 18.57C46.0404 17.9833 45.9005 17.4863 45.6581 17.0791C45.2897 16.4648 44.6929 16.0575 44.0168 15.7377ZM99.1231 4.89617C98.8923 4.89617 98.6802 4.99051 98.5286 5.14236C98.3771 5.29192 98.2792 5.50129 98.2792 5.72908V21.3195C98.2792 21.5473 98.3747 21.7567 98.5286 21.9039C98.6802 22.0512 98.8923 22.1501 99.1231 22.1501C99.6011 22.1501 99.9881 21.7797 99.9904 21.3218V5.72908C99.9881 5.26891 99.6034 4.89617 99.1231 4.89617ZM137.915 15.6411V15.7239C137.915 15.954 137.81 16.1611 137.651 16.2968C137.495 16.4349 137.29 16.5062 137.068 16.5085H127.612C127.852 18.7863 129.697 20.4682 131.895 20.4843H132.452C133.18 20.4866 133.888 20.2381 134.513 19.8286C135.138 19.4213 135.679 18.853 136.059 18.2272C136.138 18.0938 136.25 17.9925 136.371 17.9304C136.497 17.8637 136.63 17.8315 136.765 17.8315C136.914 17.8315 137.064 17.8706 137.194 17.9465L137.204 17.9511L137.213 17.958C137.451 18.1306 137.598 18.3906 137.598 18.6782C137.598 18.8254 137.558 18.9727 137.479 19.1084L137.476 19.113L137.474 19.1153C136.945 19.9436 136.224 20.7006 135.369 21.2482C134.511 21.7981 133.518 22.1455 132.452 22.1455H131.886C130.226 22.134 128.727 21.4415 127.645 20.3348C126.566 19.2327 125.901 17.7187 125.901 16.0529C125.901 14.3595 126.57 12.8248 127.659 11.7135C128.748 10.6045 130.258 9.91659 131.932 9.91659C133.529 9.91659 134.965 10.5447 136.029 11.5709C137.092 12.5971 137.786 14.0236 137.91 15.6273L137.915 15.6411ZM136.068 14.8542C135.588 12.9353 133.881 11.5686 131.932 11.5709C129.934 11.5709 128.251 12.9077 127.729 14.8542H136.068ZM53.0018 9.9419C51.6823 9.9419 50.477 10.4504 49.5794 11.2603V10.7771C49.5771 10.5539 49.4955 10.3469 49.3463 10.195C49.2041 10.0454 48.9919 9.94421 48.7611 9.94421C48.521 9.94421 48.3042 10.0385 48.1549 10.1927C48.0057 10.3446 47.9171 10.5539 47.9171 10.7771V21.5703L47.9521 21.6048L47.9545 21.6094C47.9638 21.6439 47.9871 21.6854 48.0104 21.7222C48.1246 21.9223 48.3135 22.0742 48.5466 22.1409L48.5793 22.1501H48.7611C48.8823 22.1501 49.0036 22.1248 49.1201 22.0719C49.2157 22.0259 49.3066 21.9523 49.3789 21.8579H49.3812C49.3906 21.8487 49.3929 21.8372 49.4022 21.828C49.4069 21.8257 49.4092 21.8234 49.4115 21.8188C49.4558 21.7613 49.4931 21.7038 49.5165 21.6485C49.5398 21.5841 49.5561 21.522 49.5678 21.476L49.5747 21.4461V14.9646C49.5981 14.0374 49.9851 13.1999 50.6052 12.5902C51.2207 11.9804 52.0646 11.6054 52.9972 11.6054C53.946 11.6054 54.7923 11.9827 55.4055 12.5902C56.021 13.1976 56.394 14.0328 56.394 14.9554V21.3195C56.394 21.5519 56.4942 21.7682 56.6458 21.9154C56.802 22.0627 57.0141 22.1501 57.2356 22.1501C57.4617 22.1501 57.6716 22.0627 57.8278 21.9154C57.984 21.7682 58.0795 21.5519 58.0795 21.3195V14.9554C58.0865 12.2105 55.8135 9.94651 53.0018 9.9419ZM69.7597 11.7343C70.8251 12.8479 71.4709 14.3756 71.4732 16.0345C71.4709 17.6911 70.8227 19.2189 69.7597 20.3325C68.7035 21.4461 67.2278 22.1478 65.5865 22.1478C63.9592 22.1478 62.4811 21.4438 61.4204 20.3325C60.3596 19.2189 59.7022 17.6911 59.7022 16.0345C59.7022 14.3779 60.3596 12.8479 61.4204 11.7343C62.4811 10.623 63.9592 9.9189 65.5865 9.9189C67.2278 9.9212 68.7035 10.623 69.7597 11.7343ZM69.783 16.0345C69.783 14.7967 69.3004 13.6739 68.5334 12.864C67.7617 12.0518 66.7196 11.5571 65.5842 11.5571C64.4511 11.5571 63.4044 12.0541 62.635 12.864C61.868 13.6739 61.3854 14.7967 61.3854 16.0345C61.3854 17.2724 61.868 18.3837 62.635 19.189C63.4044 19.9965 64.4511 20.4843 65.5842 20.4843C66.7172 20.4843 67.7663 19.9965 68.5334 19.189C69.3004 18.3837 69.783 17.2724 69.783 16.0345ZM87.9769 10.0132L87.9722 10.0109C87.9722 10.0109 87.9699 10.0086 87.9676 10.0086C87.872 9.96721 87.7647 9.94421 87.6645 9.94421C87.499 9.94651 87.3404 9.99482 87.2029 10.08C87.063 10.1674 86.9441 10.2962 86.8742 10.4573V10.4619L83.6545 19.1544L81.174 13.3287L81.1693 13.3264C81.0994 13.1631 80.9758 13.0388 80.8336 12.9491C80.6914 12.8617 80.5259 12.8133 80.351 12.8133C80.1832 12.8133 80.0246 12.8663 79.8871 12.9514C79.7495 13.0388 79.626 13.1631 79.556 13.3264L79.5537 13.3287L77.0685 19.159L73.8349 10.4688H73.8325C73.7766 10.3008 73.66 10.1697 73.5248 10.0823C73.3849 9.99482 73.224 9.94651 73.0562 9.94421C72.9489 9.94421 72.8417 9.96491 72.7391 10.0086H72.7345L72.7298 10.0132C72.4291 10.1513 72.2449 10.4504 72.2425 10.7748C72.2425 10.876 72.2635 10.9773 72.3032 11.0785L76.2828 21.6255V21.6301C76.3131 21.7084 76.3574 21.7866 76.4227 21.8625C76.4693 21.9177 76.5369 21.9638 76.6092 22.0006C76.6232 22.0121 76.6418 22.0305 76.6745 22.0489C76.7071 22.0696 76.7514 22.0834 76.7934 22.0903C76.8633 22.1133 76.9589 22.1478 77.0848 22.1478C77.2457 22.1478 77.3949 22.0903 77.5301 22.0052C77.656 21.9223 77.7679 21.7981 77.8285 21.6393L77.8378 21.6324L80.3557 15.694L82.8759 21.6071H82.8782C82.9365 21.7659 83.0391 21.8878 83.1556 21.9753C83.2815 22.0673 83.4214 22.1248 83.5683 22.1478H83.6732C83.7734 22.1478 83.8714 22.1294 83.953 22.0972C84.0392 22.065 84.1092 22.0213 84.1674 21.9776C84.3027 21.8763 84.4076 21.736 84.4729 21.5795V21.5749L88.4268 11.0739C88.4665 10.9727 88.4851 10.8737 88.4851 10.7702C88.4851 10.4527 88.294 10.1467 87.9769 10.0132Z"></path></svg>