<svg id="Layer_1" enable-background="new 0 0 55 55" height="512" viewBox="0 0 55 55" width="512" xmlns="http://www.w3.org/2000/svg"><g id="_x39_1"><g><g enable-background="new"><g><path d="m42.6689949 24.4894276-.0200195 10.0399799-13.6699848 7.9400024-24.9600215-14.409975c-.3499753-.2000122-.5199583-.460022-.5199583-.7200317l.0199585-10.039978c0-.2600098.1700439-.5200195.5100095-.710022l11.2000122-6.5100088c.6799927-.3999634 1.7999868-.3999634 2.4799795 0z" fill="#cc104a"/></g></g></g><g><g><g><g enable-background="new"><g><path d="m29.0016441 32.4340477-.0249844 10.0368538-24.9607724-14.4096794c-.3448737-.1999378-.5197966-.4648247-.5147936-.7247372l.0199816-10.0368557c0 .2599144.1749232.5248013.5197968.7247391z" fill="#e93565"/></g><g><path d="m42.6712952 24.4886303-.0231018 10.0384846-13.6708031 7.9445991.0231018-10.0384788z" fill="#cc104a"/></g><g><path d="m42.6712952 24.4886303-13.6708031 7.9446049-24.9611731-14.4113427c-.6860962-.3961182-.6897299-1.0409698-.0080919-1.4370937l11.1978836-6.5074997c.6848087-.3979673 1.7949142-.3961267 2.4810104-.0000086z" fill="#f45170"/></g></g></g><g><g enable-background="new"><g><path d="m44.7589607 34.8794441-11.4699707 6.6300049-3.119997-1.8099976-.0100098-5.5100097 11.4700337-6.619997 3.1199951 1.8099975z" fill="#cc104a"/></g></g></g><g><g enable-background="new"><g><path d="m33.2868195 41.5047569-3.112999-1.8090782-.0176659-5.5042076 3.112999 1.8090782z" fill="#e93565"/></g><g><path d="m33.2691536 36.0005493-3.112999-1.8090782 11.4749794-6.625082 3.112999 1.8090782z" fill="#f45170"/></g><g><path d="m44.744133 29.3754673.0176659 5.5042057-11.4749794 6.6250839-.0176659-5.5042076z" fill="#cc104a"/></g></g></g><g><g><g enable-background="new"><path d="m51.500988 35.8991165-.012619 3.9635582-9.2196999 5.3579025.0126229-3.9635582z" fill="#d4daea"/><g><path d="m42.2812996 41.2570229-.0126305 3.9635544-8.1411629-4.7003021.012619-3.9635544c3.724701 1.0107421 7.2173157 2.1491393 8.1411744 4.7003021z" fill="#f1f6fa"/></g><g><path d="m51.500988 35.8991165-9.219696 5.3579025-8.1411629-4.7003059 9.219696-5.3579006z" fill="#e3e7f0"/><g><path d="m51.1125031 39.6455956.0098648-3.0909577-2.6742936 1.5541344 2.6631432 1.5375747z" fill="#b0b8cf"/><path d="m42.6473083 44.5650406 8.4639092-4.9186936-2.6631432-1.5375747-5.7909011 3.3653145z" fill="#edeef2"/></g></g></g></g><g><g enable-background="new"><g><path d="m42.640728 43.502018.0164452-2.0279312 6.4876403-3.7552987 1.7506447 1.0173607z" fill="#4c5c75"/></g><g><path d="m50.8954582 38.7361488.0032883.7860298-8.2547302 4.7658692-.0032883-.7860298z" fill="#1d2943"/></g></g></g><g><g><path d="m43.7615318 32.3978806v.3949813l1.7939797 1.0425606.3409576-.1968613z" fill="#f1f6fa"/><path d="m41.6135941 33.6379776.3409576.1981468 1.8069801-1.0432625v-.3949813z" fill="#d4daea"/></g><g><path d="m38.9059448 35.2012596v.3949776l1.7939873 1.0425453.34095-.196846z" fill="#f1f6fa"/><path d="m36.7570419 36.4419212.3409577.1981507 1.8079452-1.0438347v-.3949776z" fill="#d4daea"/></g><path d="m45.5555115 33.8354225-1.7939797-1.0425606-1.0734253.6192208 1.7939797 1.0425605z" fill="#1d2943"/><path d="m44.4815445 34.4554787-1.7939835-1.0425606-.7330093.4232063 1.7939796 1.0425606z" fill="#febc1f"/><path d="m37.8315544 36.2160263 1.7939797 1.0425453 1.074398-.6197891-1.7939873-1.0425453z" fill="#1d2943"/><path d="m39.6263618 37.2590141-.7342376.4229889-1.7935524-1.041748.7329826-.4242287z" fill="#febc1f"/></g></g><g><g><path d="m16.6884747 14.9244442-.2276402.1341286-2.9837141 1.7317047c-.6300745.3658619-1.6585369.3658619-2.2967491 0l-.7967291-.463419-.2195272-.1260147c-.6382113-.3699064-.6382113-.9634094-.0081377-1.3292465l3.2113791-1.8658571c.6300745-.3658371 1.6544685-.3658371 2.2926798 0l1.0203247.5894337c.6341437.3658618.6382121.9634084.0081138 1.3292703z" fill="#fe90a9"/></g><g><path d="m16.4608345 15.0585728-2.9837141 1.7317047c-.6300745.3658619-1.6585369.3658619-2.2967491 0l-.7967291-.463419 2.9837141-1.7316799c.6300745-.3658619 1.6544685-.3658619 2.2926798 0z" fill="#cc104a"/></g></g><g><path d="m29.7589588 26.3293934 1.0300293-.5999756-5.3099976-3.0599976-.8900146 1c-.3499756.3900146-.2199707.8599854.3099976 1.1699829l.7900391.4500122.4699707-.2799683 1.6900024.9799805-1.6799927.9699707-1.6799927-.9799805.4799805-.2700195-.789978-.4599609c-.8400269-.4899902-1.0499878-1.2300415-.5-1.8500366l1.0499878-1.1699829-3.8499756-2.2199707c-.5600586.1499634-1.2600098.0899658-1.7300415-.1800537-.5899658-.3399658-.5899658-.8899536 0-1.2399902.5900269-.3399658 1.5499878-.3399658 2.1400146 0 .4699707.2700195.5700073.6700439.3099976 1l1.5100098.8699951 2.0200195-.6099854c1.0699463-.3200073 2.3499756-.2000122 3.1999512.289978l.8000488.460022c.4499512-.0999756.9899902-.0499878 1.3599854.1699829.25.1400146.3800049.3300171.3800049.5200195 0 .1799927-.1199951.3699951-.3699951.5200195-.4900513.2799683-1.3000488.2799683-1.7900391 0-.2600098-.1500244-.3800049-.3400269-.3800049-.5200195 0-.0999756.0300293-.1900024.0900269-.2700195l-.7999878-.4599609c-.5400391-.3099976-1.3500366-.3900146-2.0100098-.1799927l-1.75.5199585 7.6499634 4.4100342 1.0300312-.6000366 1.2799683 2.3500366z" fill="#fff"/></g></g><path d="m14.2683907 23.0972176c-.758914 0-1.4317226.2960625-1.921545.7912407-.4951782.48979-.7912073 1.1625977-.7912073 1.9215431 0-1.4963417-1.2164431-2.7127838-2.7127514-2.7127838.7427502 0 1.4317217-.3121586 1.9268999-.78582.4736595-.4952106.7858515-1.1841488.7858515-1.9269314 0 .7427826.2960291 1.4317207.7912073 1.9269314.4898223.4736614 1.162631.78582 1.921545.78582z" fill="#fff"/></g></g></svg>